<svg width="21" height="22" viewBox="0 0 21 22" fill="none" xmlns="http://www.w3.org/2000/svg">
<g filter="url(#filter0_i_20_946)">
<rect y="0.5" width="21" height="21" rx="10.5" fill="#FF8C00"/>
<path fill-rule="evenodd" clip-rule="evenodd" d="M12.9291 6.6071C14.5112 7.20295 15.6524 8.04106 15.3972 9.55838C15.2041 10.6626 14.5774 11.1825 13.7286 11.3427C14.8614 11.971 15.4089 12.8812 14.8329 14.4207C14.1164 16.3516 12.4967 16.469 10.3491 16.0099L9.80447 18.0557L8.55635 17.723L9.10097 15.6772C8.96516 15.6387 8.82207 15.6025 8.67531 15.5654L8.67523 15.5654L8.6752 15.5654C8.47907 15.5158 8.2764 15.4646 8.07581 15.4039L7.5312 17.4497L6.28536 17.1176L6.82997 15.0718L4.34801 14.3539L4.95873 12.9158C4.95873 12.9158 5.89555 13.189 5.88098 13.1735C6.22841 13.2646 6.39729 13.0462 6.46621 12.8916L7.33836 9.61185L7.97332 7.28136C8.00017 7.02791 7.91286 6.69177 7.40518 6.54624C7.43964 6.52878 6.49134 6.30264 6.49134 6.30264L6.8553 4.9317L9.4131 5.61354L9.94656 3.60963L11.2351 3.95313L10.7017 5.95705C10.9522 6.01679 11.197 6.08449 11.4445 6.15295L11.4446 6.15298C11.5258 6.17544 11.6073 6.19798 11.6894 6.22035L12.2229 4.21644L13.4766 4.55065L12.9291 6.6071ZM9.52518 9.73429L9.58771 9.75397C10.3372 9.99023 12.5594 10.6907 12.9281 9.32844C13.2714 8.03324 11.3467 7.56225 10.4523 7.34342L10.4523 7.34342C10.3467 7.31757 10.2555 7.29524 10.184 7.27549L9.52518 9.73429ZM8.5555 13.7781C8.51611 13.7658 8.47981 13.7545 8.4469 13.7443L9.10573 11.2855C9.18476 11.3075 9.28471 11.3329 9.40029 11.3624C10.4546 11.6308 12.8094 12.2305 12.4487 13.5323C12.0989 14.885 9.4788 14.0666 8.5555 13.7781Z" fill="white"/>
</g>
<defs>
<filter id="filter0_i_20_946" x="0" y="0.5" width="22" height="24" filterUnits="userSpaceOnUse" color-interpolation-filters="sRGB">
<feFlood flood-opacity="0" result="BackgroundImageFix"/>
<feBlend mode="normal" in="SourceGraphic" in2="BackgroundImageFix" result="shape"/>
<feColorMatrix in="SourceAlpha" type="matrix" values="0 0 0 0 0 0 0 0 0 0 0 0 0 0 0 0 0 0 127 0" result="hardAlpha"/>
<feMorphology radius="10" operator="erode" in="SourceAlpha" result="effect1_innerShadow_20_946"/>
<feOffset dx="1" dy="3"/>
<feGaussianBlur stdDeviation="0.5"/>
<feComposite in2="hardAlpha" operator="arithmetic" k2="-1" k3="1"/>
<feColorMatrix type="matrix" values="0 0 0 0 1 0 0 0 0 1 0 0 0 0 1 0 0 0 0.2 0"/>
<feBlend mode="plus-lighter" in2="shape" result="effect1_innerShadow_20_946"/>
</filter>
</defs>
</svg>
