<svg width="16" height="17" viewBox="0 0 16 17" fill="none" xmlns="http://www.w3.org/2000/svg">
<circle cx="8" cy="8.50002" r="5" fill="white"/>
<path d="M8.00005 1.30001C4.02385 1.30001 0.800049 4.52381 0.800049 8.50001C0.800049 12.4762 4.02385 15.7 8.00005 15.7C11.9763 15.7 15.2001 12.4762 15.2001 8.50001C15.2001 4.52381 11.9763 1.30001 8.00005 1.30001ZM7.40005 4.30001L8.60005 4.30001V5.5047C9.71605 5.5305 10.3825 6.0905 10.3825 6.9965C10.3825 7.6325 9.91292 8.18616 9.29732 8.27736V8.35236C10.0917 8.41056 10.6696 9.00981 10.6696 9.78321C10.6696 10.8332 9.87745 11.497 8.60005 11.4988V12.7H7.40005V11.5H5.90005L5.90005 5.50001L7.40005 5.50001V4.30001ZM7.1563 6.46095V7.98673H8.09966C8.77766 7.98673 9.14732 7.70858 9.14732 7.22618C9.14732 6.74798 8.80276 6.46095 8.20396 6.46095H7.1563ZM7.1563 8.83517L7.1563 10.5391H8.27427C8.99787 10.5391 9.38872 10.2352 9.38872 9.67423C9.38872 9.12523 8.98477 8.83517 8.24497 8.83517H7.1563Z" fill="#FE862C"/>
</svg>
