<svg width="19" height="19" viewBox="0 0 19 19" fill="none" xmlns="http://www.w3.org/2000/svg">
<rect width="18.9474" height="18.9474" rx="2.36842" fill="white"/>
<path d="M1.9751 16.6702C1.9751 16.8378 2.11498 16.9736 2.28753 16.9736L16.6588 16.9737C16.8313 16.9737 16.9712 16.8378 16.9712 16.6702V16.3078C16.9784 16.1986 16.993 15.6535 16.6337 15.0509C16.4071 14.6709 16.0783 14.3426 15.6563 14.0752C15.1458 13.7518 14.4965 13.5174 13.711 13.3762C13.7052 13.3755 13.1228 13.2983 12.5262 13.1459C11.4872 12.8805 11.3964 12.6457 11.3958 12.6434C11.3896 12.6202 11.3808 12.5979 11.3695 12.5769C11.361 12.5331 11.34 12.3682 11.3801 11.9264C11.4821 10.8043 12.084 10.1412 12.5676 9.60836C12.7201 9.44032 12.8641 9.2816 12.9751 9.12595C13.4536 8.45451 13.4981 7.69101 13.5001 7.64368C13.5001 7.5478 13.4891 7.46897 13.4655 7.3959C13.4185 7.24969 13.3301 7.15859 13.2656 7.09207L13.2652 7.0916C13.2489 7.07486 13.2335 7.05899 13.221 7.04443C13.2162 7.03886 13.2035 7.02414 13.2151 6.94855C13.2575 6.6703 13.283 6.43732 13.2953 6.21536C13.3171 5.81992 13.3341 5.22852 13.2321 4.65295C13.2195 4.55467 13.1979 4.45085 13.1642 4.32718C13.0564 3.93084 12.8833 3.59198 12.6427 3.31233C12.6014 3.26732 11.5956 2.20768 8.67579 1.99026C8.27206 1.9602 7.87294 1.97639 7.48006 1.99647C7.38536 2.00116 7.25569 2.00758 7.13434 2.03902C6.83288 2.11711 6.75244 2.30819 6.73132 2.41513C6.69631 2.59226 6.75785 2.73005 6.79854 2.82125C6.80446 2.83447 6.81177 2.85083 6.79902 2.8934C6.73124 2.99837 6.62462 3.093 6.51591 3.18265C6.48449 3.20935 5.75233 3.84066 5.71207 4.66535C5.60352 5.29255 5.61173 6.26976 5.7401 6.94515C5.74756 6.98245 5.75857 7.03768 5.74069 7.07498C5.60265 7.19869 5.44617 7.3389 5.44657 7.65884C5.44823 7.69101 5.49263 8.45451 5.97121 9.12595C6.08206 9.28148 6.22598 9.44009 6.37838 9.60801L6.37874 9.60836C6.86237 10.1412 7.46423 10.8043 7.56619 11.9264C7.60629 12.3682 7.58529 12.5331 7.57681 12.5769C7.56548 12.5978 7.55663 12.6201 7.55056 12.6433C7.54992 12.6456 7.45945 12.8797 6.42516 13.1446C5.82848 13.2974 5.24107 13.3755 5.22354 13.378C4.46024 13.5068 3.81484 13.7354 3.30528 14.0572C2.88474 14.3228 2.55529 14.6516 2.32609 15.0346C1.95989 15.6465 1.96979 16.2038 1.9751 16.3055V16.6702Z" stroke="#333333" stroke-width="1.57895" stroke-linejoin="round"/>
</svg>
