<svg width="19" height="20" viewBox="0 0 19 20" fill="none" xmlns="http://www.w3.org/2000/svg">
<g clip-path="url(#clip0_270_872)">
<rect x="0.0263672" y="0.526321" width="18.9474" height="18.9474" rx="2.36842" fill="white"/>
<path d="M17.3949 2.10527H1.60547V8.42106H17.3949V2.10527Z" stroke="#333333" stroke-width="1.57895" stroke-linejoin="round"/>
<path d="M17.3949 11.5789H1.60547V17.8947H17.3949V11.5789Z" stroke="#333333" stroke-width="1.57895" stroke-linejoin="round"/>
<path d="M5.15784 4.47368H4.36837C4.15036 4.47368 3.97363 4.6504 3.97363 4.86842V5.65789C3.97363 5.8759 4.15036 6.05263 4.36837 6.05263H5.15784C5.37586 6.05263 5.55258 5.8759 5.55258 5.65789V4.86842C5.55258 4.6504 5.37586 4.47368 5.15784 4.47368Z" fill="#333333"/>
<path d="M5.15784 13.9474H4.36837C4.15036 13.9474 3.97363 14.1241 3.97363 14.3421V15.1316C3.97363 15.3496 4.15036 15.5263 4.36837 15.5263H5.15784C5.37586 15.5263 5.55258 15.3496 5.55258 15.1316V14.3421C5.55258 14.1241 5.37586 13.9474 5.15784 13.9474Z" fill="#333333"/>
<path d="M8.3158 4.47368H7.52633C7.30832 4.47368 7.13159 4.6504 7.13159 4.86842V5.65789C7.13159 5.8759 7.30832 6.05263 7.52633 6.05263H8.3158C8.53382 6.05263 8.71054 5.8759 8.71054 5.65789V4.86842C8.71054 4.6504 8.53382 4.47368 8.3158 4.47368Z" fill="#333333"/>
<path d="M8.3158 13.9474H7.52633C7.30832 13.9474 7.13159 14.1241 7.13159 14.3421V15.1316C7.13159 15.3496 7.30832 15.5263 7.52633 15.5263H8.3158C8.53382 15.5263 8.71054 15.3496 8.71054 15.1316V14.3421C8.71054 14.1241 8.53382 13.9474 8.3158 13.9474Z" fill="#333333"/>
</g>
<defs>
<clipPath id="clip0_270_872">
<rect x="0.0263672" y="0.526321" width="18.9474" height="18.9474" rx="2.36842" fill="white"/>
</clipPath>
</defs>
</svg>
