<svg width="19" height="20" viewBox="0 0 19 20" fill="none" xmlns="http://www.w3.org/2000/svg">
<g clip-path="url(#clip0_707_8477)">
<rect x="0.0263672" y="0.526321" width="18.9474" height="18.9474" rx="2.36842" fill="white"/>
<path d="M17.3949 2.10526H1.60547V8.42105H17.3949V2.10526Z" stroke="#333333" stroke-width="1.57895" stroke-linejoin="round"/>
<path d="M17.3949 11.5789H1.60547V17.8947H17.3949V11.5789Z" stroke="#333333" stroke-width="1.57895" stroke-linejoin="round"/>
<path d="M5.15784 4.47368H4.36837C4.15036 4.47368 3.97363 4.6504 3.97363 4.86842V5.65789C3.97363 5.8759 4.15036 6.05263 4.36837 6.05263H5.15784C5.37586 6.05263 5.55258 5.8759 5.55258 5.65789V4.86842C5.55258 4.6504 5.37586 4.47368 5.15784 4.47368Z" fill="#333333"/>
<path d="M5.15784 13.9474H4.36837C4.15036 13.9474 3.97363 14.1241 3.97363 14.3421V15.1316C3.97363 15.3496 4.15036 15.5263 4.36837 15.5263H5.15784C5.37586 15.5263 5.55258 15.3496 5.55258 15.1316V14.3421C5.55258 14.1241 5.37586 13.9474 5.15784 13.9474Z" fill="#333333"/>
<path d="M8.31556 4.47368H7.52608C7.30807 4.47368 7.13135 4.6504 7.13135 4.86842V5.65789C7.13135 5.8759 7.30807 6.05263 7.52608 6.05263H8.31556C8.53357 6.05263 8.7103 5.8759 8.7103 5.65789V4.86842C8.7103 4.6504 8.53357 4.47368 8.31556 4.47368Z" fill="#333333"/>
<path d="M8.31556 13.9474H7.52608C7.30807 13.9474 7.13135 14.1241 7.13135 14.3421V15.1316C7.13135 15.3496 7.30807 15.5263 7.52608 15.5263H8.31556C8.53357 15.5263 8.7103 15.3496 8.7103 15.1316V14.3421C8.7103 14.1241 8.53357 13.9474 8.31556 13.9474Z" fill="#333333"/>
<path d="M11.5528 4.02557L11.5793 3.25H10.8033H8.18033H7.40573L7.43072 4.02419L7.7176 12.9137L7.74103 13.6395H8.46721H8.65927C8.39166 13.7402 8.14438 13.8929 7.92338 14.0987C7.48608 14.5058 7.25 15.0301 7.25 15.6298C7.25 16.2253 7.49121 16.7422 7.92338 17.1445C8.35918 17.5502 8.8972 17.75 9.4918 17.75C10.0863 17.75 10.6242 17.5505 11.0633 17.1492C11.5019 16.7484 11.75 16.2303 11.75 15.6298C11.75 15.0252 11.5072 14.4996 11.0633 14.0939C10.8411 13.8909 10.5936 13.7395 10.3263 13.6395H10.5H11.2248L11.2496 12.9151L11.5528 4.02557Z" fill="#333333" stroke="white" stroke-width="1.5"/>
</g>
<defs>
<clipPath id="clip0_707_8477">
<rect x="0.0263672" y="0.526321" width="18.9474" height="18.9474" rx="2.36842" fill="white"/>
</clipPath>
</defs>
</svg>
