<svg width="24" height="23" viewBox="0 0 24 23" fill="none" xmlns="http://www.w3.org/2000/svg">
<rect x="0.94751" y="0.447388" width="22.1053" height="22.1053" rx="2.36842" fill="white"/>
<path fill-rule="evenodd" clip-rule="evenodd" d="M9.16946 3.05706C9.16946 2.69372 8.87491 2.39917 8.51156 2.39917C8.14822 2.39917 7.85367 2.69372 7.85367 3.05706V4.7018H6.62748C5.84024 4.7018 5.20205 5.33999 5.20205 6.12724V7.35334H3.55731C3.19396 7.35334 2.89941 7.64789 2.89941 8.01124C2.89941 8.37458 3.19396 8.66913 3.55731 8.66913H5.20205V10.8421H3.55731C3.19396 10.8421 2.89941 11.1367 2.89941 11.5C2.89941 11.8634 3.19396 12.1579 3.55731 12.1579H5.20205V14.3309H3.55731C3.19396 14.3309 2.89941 14.6255 2.89941 14.9888C2.89941 15.3522 3.19396 15.6467 3.55731 15.6467H5.20205V16.8729C5.20205 17.6601 5.84024 18.2983 6.62748 18.2983H7.85367V19.943C7.85367 20.3064 8.14822 20.6009 8.51156 20.6009C8.87491 20.6009 9.16946 20.3064 9.16946 19.943V18.2983H11.3425V19.943C11.3425 20.3064 11.637 20.6009 12.0004 20.6009C12.3637 20.6009 12.6583 20.3064 12.6583 19.943V18.2983H14.8313V19.943C14.8313 20.3064 15.1258 20.6009 15.4892 20.6009C15.8525 20.6009 16.1471 20.3064 16.1471 19.943V18.2983H17.3731C18.1604 18.2983 18.7985 17.6601 18.7985 16.8729V15.6467H20.4434C20.8068 15.6467 21.1013 15.3522 21.1013 14.9888C21.1013 14.6255 20.8068 14.3309 20.4434 14.3309H18.7985V12.1579H20.4434C20.8068 12.1579 21.1013 11.8634 21.1013 11.5C21.1013 11.1367 20.8068 10.8421 20.4434 10.8421H18.7985V8.66913H20.4434C20.8068 8.66913 21.1013 8.37458 21.1013 8.01124C21.1013 7.64789 20.8068 7.35334 20.4434 7.35334H18.7985V6.12724C18.7985 5.34 18.1604 4.7018 17.3731 4.7018H16.1471V3.05706C16.1471 2.69372 15.8525 2.39917 15.4892 2.39917C15.1258 2.39917 14.8313 2.69372 14.8313 3.05706V4.7018H12.6583V3.05706C12.6583 2.69372 12.3637 2.39917 12.0004 2.39917C11.637 2.39917 11.3425 2.69372 11.3425 3.05706V4.7018H9.16946V3.05706ZM6.51783 14.9888V16.8729C6.51783 16.9334 6.56692 16.9825 6.62748 16.9825H8.50663L8.51156 16.9825L8.5165 16.9825H11.9954L12.0004 16.9825L12.0053 16.9825H15.4842L15.4892 16.9825L15.4941 16.9825H17.3731C17.4337 16.9825 17.4827 16.9334 17.4827 16.8729V6.12724C17.4827 6.06668 17.4337 6.01759 17.3731 6.01759H6.62748C6.56693 6.01759 6.51783 6.06668 6.51783 6.12724V8.01124V11.5V14.9888ZM9.69773 8.53951C9.33439 8.53951 9.03984 8.83406 9.03984 9.19741V13.8027C9.03984 14.166 9.33439 14.4606 9.69773 14.4606H14.303C14.6663 14.4606 14.9609 14.166 14.9609 13.8027V9.19741C14.9609 8.83406 14.6663 8.53951 14.303 8.53951H9.69773ZM13.6451 13.1448H10.3556V9.8553H13.6451V13.1448Z" fill="#333333"/>
</svg>
