<svg width="12" height="13" viewBox="0 0 12 13" fill="none" xmlns="http://www.w3.org/2000/svg">
    <g clip-path="url(#clip0_199_662)">
        <path d="M3.61902 3.72979V2.62368C3.61902 2.25172 3.92055 1.95019 4.29251 1.95019H10.1294C10.5014 1.95019 10.8029 2.25172 10.8029 2.62368V8.4606C10.8029 8.83256 10.5014 9.1341 10.1294 9.1341H9.01085" stroke="#ffffff" stroke-width="0.957854" stroke-linecap="round" stroke-linejoin="round"/>
        <path d="M8.21366 3.8659H2.37674C2.00478 3.8659 1.70325 4.16743 1.70325 4.53939V10.3763C1.70325 10.7483 2.00478 11.0498 2.37674 11.0498H8.21366C8.58562 11.0498 8.88715 10.7483 8.88715 10.3763V4.53939C8.88715 4.16743 8.58562 3.8659 8.21366 3.8659Z" stroke="#ffffff" stroke-width="0.957854" stroke-linejoin="round"/>
    </g>
    <defs>
        <clipPath id="clip0_199_662">
            <rect width="11.4943" height="11.4943" fill="white" transform="translate(0.505737 0.752872)"/>
        </clipPath>
    </defs>
</svg>
