<svg width="36" height="36" viewBox="0 0 36 36" fill="none" xmlns="http://www.w3.org/2000/svg">
<rect x="0.5" y="0.5" width="35" height="35" rx="17.5" fill="black" fill-opacity="0.1"/>
<rect x="0.5" y="0.5" width="35" height="35" rx="17.5" stroke="white"/>
<g clip-path="url(#clip0_202_865)">
<path d="M25.6451 10.3671C25.1718 9.89382 24.4073 9.89382 23.934 10.3671L18 16.289L12.066 10.3549C11.5927 9.88168 10.8282 9.88168 10.3549 10.3549C9.88168 10.8282 9.88168 11.5927 10.3549 12.066L16.289 18L10.3549 23.934C9.88168 24.4073 9.88168 25.1718 10.3549 25.6451C10.8282 26.1183 11.5927 26.1183 12.066 25.6451L18 19.711L23.934 25.6451C24.4073 26.1183 25.1718 26.1183 25.6451 25.6451C26.1183 25.1718 26.1183 24.4073 25.6451 23.934L19.711 18L25.6451 12.066C26.1062 11.6049 26.1062 10.8282 25.6451 10.3671Z" fill="white"/>
</g>
<defs>
<clipPath id="clip0_202_865">
<rect width="16" height="16" fill="white" transform="translate(10 10)"/>
</clipPath>
</defs>
</svg>
