<svg width="375" height="210" viewBox="0 0 375 210" fill="none" xmlns="http://www.w3.org/2000/svg">
<g style="mix-blend-mode:soft-light">
<rect y="3" width="375" height="157" fill="url(#paint0_linear_77_645)"/>
</g>
<rect width="375" height="51" transform="matrix(1 0 0 -1 0 210)" fill="url(#paint1_linear_77_645)"/>
<mask id="mask0_77_645" style="mask-type:alpha" maskUnits="userSpaceOnUse" x="0" y="119" width="375" height="41">
<rect y="119" width="375" height="41" fill="#D9D9D9"/>
</mask>
<g mask="url(#mask0_77_645)">
<path d="M17 124.1C17 126.917 19.5569 129.2 22.711 129.2H85.6145C88.7686 129.2 91.3254 131.483 91.3254 134.3C91.3254 137.117 88.7686 139.4 85.6145 139.4H60.0393C56.8852 139.4 54.3283 141.683 54.3283 144.5C54.3283 147.317 56.8852 149.6 60.0393 149.6H131.426C134.58 149.6 137.137 151.883 137.137 154.7C137.137 157.517 134.58 159.8 131.426 159.8H97.0364C93.8823 159.8 91.3254 162.083 91.3254 164.9C91.3254 167.717 93.8823 170 97.0364 170H273.908C277.062 170 279.619 167.717 279.619 164.9C279.619 162.083 277.062 159.8 273.908 159.8H266.823C263.669 159.8 261.112 157.517 261.112 154.7C261.112 151.883 263.669 149.6 266.823 149.6H296.778C299.932 149.6 302.489 147.317 302.489 144.5C302.489 141.683 299.932 139.4 296.778 139.4H295.385C292.231 139.4 289.674 137.117 289.674 134.3C289.674 131.483 292.231 129.2 295.385 129.2H343.289C346.443 129.2 349 126.917 349 124.1C349 121.283 346.443 119 343.289 119H22.711C19.5569 119 17 121.283 17 124.1Z" fill="#1AC4FF"/>
</g>
<mask id="mask1_77_645" style="mask-type:alpha" maskUnits="userSpaceOnUse" x="0" y="129" width="375" height="31">
<rect y="129" width="375" height="31" fill="#D9D9D9"/>
</mask>
<g mask="url(#mask1_77_645)">
<path d="M434 134.2C434 137.072 430.434 139.4 426.036 139.4H338.312C333.913 139.4 330.347 141.728 330.347 144.6C330.347 147.472 333.913 149.8 338.312 149.8H373.978C378.377 149.8 381.943 152.128 381.943 155C381.943 157.872 378.377 160.2 373.978 160.2H274.423C270.025 160.2 266.459 162.528 266.459 165.4C266.459 168.272 270.025 170.6 274.423 170.6H322.383C326.782 170.6 330.347 172.928 330.347 175.8C330.347 178.672 326.782 181 322.383 181H75.7213C71.3227 181 67.757 178.672 67.757 175.8C67.757 172.928 71.3227 170.6 75.7213 170.6H85.6019C90.0005 170.6 93.5663 168.272 93.5663 165.4C93.5663 162.528 90.0005 160.2 85.6019 160.2H43.8274C39.4287 160.2 35.863 157.872 35.863 155C35.863 152.128 39.4287 149.8 43.8274 149.8H45.7704C50.169 149.8 53.7348 147.472 53.7348 144.6C53.7348 141.728 50.169 139.4 45.7704 139.4H-21.0356C-25.4342 139.4 -29 137.072 -29 134.2C-29 131.328 -25.4342 129 -21.0356 129H426.036C430.434 129 434 131.328 434 134.2Z" fill="#5FD6FF"/>
<path d="M-6.25568 150.03H12.7601C17.1587 150.03 20.7245 152.358 20.7245 155.23V155.23C20.7245 158.102 17.1587 160.43 12.7601 160.43H-6.25568C-10.6543 160.43 -14.22 158.102 -14.22 155.23C-14.22 152.358 -10.6543 150.03 -6.25568 150.03Z" fill="#5FD6FF"/>
<path d="M100.964 150.03H212.809C217.208 150.03 220.773 152.358 220.773 155.23V155.23C220.773 158.102 217.208 160.43 212.809 160.43H100.964C96.5658 160.43 93 158.102 93 155.23C93 152.358 96.5658 150.03 100.964 150.03Z" fill="#27AAE1"/>
<path d="M216.479 129H298.036C302.434 129 306 131.328 306 134.2V134.2C306 137.072 302.434 139.4 298.036 139.4H216.479C212.08 139.4 208.514 137.072 208.514 134.2C208.514 131.328 212.08 129 216.479 129Z" fill="#27AAE1"/>
<path d="M117.26 129.23H134.195C138.594 129.23 142.16 131.558 142.16 134.43V134.43C142.16 137.302 138.594 139.63 134.195 139.63H117.26C112.861 139.63 109.295 137.302 109.295 134.43C109.295 131.558 112.861 129.23 117.26 129.23Z" fill="#27AAE1"/>
<rect y="150" width="67" height="10" fill="#5FD6FF"/>
</g>
<mask id="mask2_77_645" style="mask-type:alpha" maskUnits="userSpaceOnUse" x="0" y="46" width="375" height="114">
<rect y="46" width="375" height="114" fill="#D9D9D9"/>
</mask>
<g mask="url(#mask2_77_645)">
<path d="M385 67.2338C382.256 66.4351 379.354 66 376.347 66C366.806 66 358.289 70.3209 352.675 77.0881H333.175C329.296 77.0881 326.152 80.1982 326.152 84.0345C326.152 87.1495 328.225 89.7855 331.081 90.6666H314.257C309.697 90.6666 306 94.323 306 98.8333C306 103.344 309.697 107 314.257 107H385V67.2338Z" fill="url(#paint2_linear_77_645)"/>
<path d="M377.463 69.9056C370.307 69.9056 363.727 72.3361 358.516 76.4063L377.463 69.9056Z" fill="#E9F9FF"/>
<path d="M377.463 69.9056C370.307 69.9056 363.727 72.3361 358.516 76.4063" stroke="#E9F9FF" stroke-width="2" stroke-miterlimit="10" stroke-linecap="round"/>
<path d="M315.825 95.1813H317.183C318.134 95.1813 318.895 95.9424 318.895 96.8697C318.895 97.7969 318.134 98.558 317.183 98.558H315.824C314.879 98.558 314.112 97.7919 314.112 96.8697C314.112 95.9474 314.879 95.1813 315.825 95.1813Z" fill="#E9F9FF" stroke="#E9F9FF"/>
<path d="M326.148 95.1813H342.298C343.244 95.1813 344.011 95.9474 344.011 96.8697C344.011 97.7919 343.244 98.558 342.298 98.558H326.148C325.197 98.558 324.436 97.7969 324.436 96.8697C324.436 95.9424 325.197 95.1813 326.148 95.1813Z" fill="#E9F9FF" stroke="#E9F9FF"/>
<path d="M342.415 80.5993C342.476 80.5993 342.515 80.6464 342.515 80.6929C342.515 80.7394 342.476 80.7865 342.415 80.7865H335.642C335.581 80.7865 335.541 80.7394 335.541 80.6929C335.541 80.6464 335.581 80.5993 335.642 80.5993H342.415Z" fill="#E9F9FF" stroke="#E9F9FF"/>
<path d="M-12 87.9629C-9.81138 87.3396 -7.49714 87 -5.09981 87C2.50937 87 9.30104 90.3724 13.7779 95.6542H29.3288C32.4221 95.6542 34.9298 98.0815 34.9298 101.076C34.9298 103.507 33.2764 105.564 30.9987 106.252H44.4151C48.0519 106.252 51 109.106 51 112.626C51 116.146 48.0519 119 44.4151 119H-12V87.9629Z" fill="url(#paint3_linear_77_645)"/>
<path d="M-5.98964 90.0483C-0.282727 90.0483 4.96428 91.9453 9.11981 95.122L-5.98964 90.0483Z" fill="#E9F9FF"/>
<path d="M-5.98964 90.0483C-0.282727 90.0483 4.96428 91.9453 9.11981 95.122" stroke="#E9F9FF" stroke-width="2" stroke-miterlimit="10" stroke-linecap="round"/>
<path d="M43.1653 109.885H42.0821C41.3683 109.885 40.8176 110.441 40.8176 111.093C40.8176 111.745 41.3683 112.301 42.0821 112.301H43.1653C43.875 112.301 44.4297 111.741 44.4297 111.093C44.4297 110.445 43.8751 109.885 43.1653 109.885Z" fill="#E9F9FF" stroke="#E9F9FF"/>
<path d="M34.9325 109.885H22.0535C21.3438 109.885 20.7891 110.445 20.7891 111.093C20.7891 111.741 21.3438 112.301 22.0535 112.301H34.9325C35.6463 112.301 36.197 111.745 36.197 111.093C36.197 110.441 35.6463 109.885 34.9325 109.885Z" fill="#E9F9FF" stroke="#E9F9FF"/>
<mask id="path-24-inside-1_77_645" fill="white">
<path d="M21.4815 98.4676C21.4815 98.2117 21.6958 98.0043 21.9602 98.0043H27.3618C27.6261 98.0043 27.8405 98.2117 27.8405 98.4676C27.8405 98.7235 27.6261 98.9309 27.3618 98.9309H21.9602C21.6958 98.9309 21.4815 98.7235 21.4815 98.4676Z"/>
</mask>
<path d="M21.4815 98.4676C21.4815 98.2117 21.6958 98.0043 21.9602 98.0043H27.3618C27.6261 98.0043 27.8405 98.2117 27.8405 98.4676C27.8405 98.7235 27.6261 98.9309 27.3618 98.9309H21.9602C21.6958 98.9309 21.4815 98.7235 21.4815 98.4676Z" fill="#E9F9FF"/>
<path d="M20.4815 98.4676C20.4815 97.6289 21.1746 97.0043 21.9602 97.0043V99.0043C22.217 99.0043 22.4815 98.7946 22.4815 98.4676H20.4815ZM21.9602 97.0043H27.3618V99.0043H21.9602V97.0043ZM27.3618 97.0043C28.1474 97.0043 28.8405 97.629 28.8405 98.4676H26.8405C26.8405 98.7945 27.1049 99.0043 27.3618 99.0043V97.0043ZM28.8405 98.4676C28.8405 99.3062 28.1475 99.9309 27.3618 99.9309V97.9309C27.1048 97.9309 26.8405 98.1408 26.8405 98.4676H28.8405ZM27.3618 99.9309H21.9602V97.9309H27.3618V99.9309ZM21.9602 99.9309C21.1745 99.9309 20.4815 99.3063 20.4815 98.4676H22.4815C22.4815 98.1407 22.2171 97.9309 21.9602 97.9309V99.9309Z" fill="#E9F9FF" mask="url(#path-24-inside-1_77_645)"/>
<path d="M429.922 107.541V107.541C430.088 105.609 429.988 103.861 429.635 102.404L429.635 102.403C429.57 102.137 429.498 101.88 429.416 101.634C429.416 101.633 429.416 101.633 429.416 101.633C428.991 100.348 428.336 99.3472 427.459 98.7236L427.459 98.7235C427.207 98.5445 426.938 98.3965 426.65 98.282C426.65 98.282 426.65 98.282 426.65 98.2819C426.542 98.239 426.432 98.1985 426.319 98.1651C425.827 98.0198 425.309 97.9755 424.773 98.018L424.774 98.0143H334.854C330.718 97.6772 325.183 103.319 322.081 111.251C318.77 119.718 319.487 127.587 323.682 128.827C324.036 128.932 324.405 128.982 324.783 128.988L324.779 129H415.831L415.837 128.976C417.925 128.827 420.296 127.3 422.506 124.828C422.506 124.828 422.506 124.828 422.506 124.827C422.639 124.679 422.771 124.528 422.902 124.373C422.902 124.372 422.903 124.371 422.904 124.371C424.26 122.768 425.543 120.813 426.648 118.604C426.648 118.604 426.648 118.603 426.648 118.603C427.105 117.689 427.532 116.734 427.92 115.742C427.97 115.615 428.016 115.488 428.064 115.362C428.302 114.731 428.519 114.103 428.713 113.482C428.713 113.482 428.713 113.482 428.713 113.482C428.799 113.206 428.882 112.931 428.959 112.657C428.959 112.657 428.959 112.656 428.96 112.655C429.466 110.866 429.784 109.141 429.922 107.541Z" fill="#C27222"/>
<path d="M402.998 120.167C397.705 119.844 392.434 119.295 387.142 118.952C381.821 118.607 376.501 118.569 371.173 118.825C365.138 119.114 359.131 119.709 353.128 120.304C352.551 120.361 352.544 121.156 353.128 121.098C363.866 120.034 374.619 119.045 385.438 119.643C395.808 120.217 406.169 121.771 416.583 121.008C419.822 120.77 423.04 120.306 426.16 119.54C426.326 119.233 426.489 118.921 426.648 118.603C419.056 120.6 410.87 120.647 402.998 120.167Z" fill="#915319"/>
<path d="M427.306 107.437C425.093 108.128 422.947 108.97 420.737 109.668C418.45 110.39 416.101 110.893 413.679 111.114C408.561 111.579 403.415 111.022 398.322 110.584C395.781 110.365 393.235 110.171 390.681 110.132C388.069 110.091 385.457 110.193 382.849 110.299C377.615 110.511 372.315 110.745 367.143 109.849C358.775 108.401 349.751 104.305 341.394 108.106C340.532 108.498 339.737 108.979 339.019 109.536C339.999 103.722 338.807 99.092 335.672 98.1651C335.407 98.0867 335.134 98.0371 334.854 98.0143C330.718 97.6772 325.183 103.319 322.081 111.251C318.77 119.718 319.487 127.587 323.682 128.827C324.036 128.932 324.405 128.982 324.783 128.988C327.032 129.025 329.657 127.368 332.069 124.589C339.12 126.31 346.519 126.847 353.811 126.179C358.036 125.792 362.208 125.079 366.4 124.494C370.687 123.896 374.997 123.517 379.341 123.475C384.206 123.428 389.073 123.762 393.869 124.475C394.444 124.561 394.691 123.795 394.112 123.709C385.62 122.447 376.967 122.367 368.441 123.425C364.2 123.952 359.999 124.702 355.75 125.185C351.556 125.661 347.333 125.808 343.113 125.513C339.573 125.266 336.066 124.723 332.643 123.904C333.201 123.21 333.744 122.457 334.265 121.651C338.377 122.985 342.756 123.736 347.146 123.394C348.165 123.314 349.505 123.157 349.728 122.094C349.946 121.055 348.948 120.174 347.951 119.775C346.695 119.273 345.312 119.296 343.96 119.296C342.617 119.297 341.283 119.193 339.967 118.957C338.714 118.731 337.491 118.394 336.313 117.964C336.312 117.966 336.311 117.967 336.31 117.969C336.651 117.25 336.974 116.507 337.273 115.742C337.921 114.084 338.413 112.45 338.756 110.884C341.065 108.611 344.606 107.577 348.034 107.371C352.663 107.092 357.141 108.337 361.535 109.433C363.913 110.026 366.307 110.585 368.76 110.893C371.339 111.217 373.944 111.308 376.548 111.285C381.728 111.24 386.9 110.777 392.083 110.962C397.147 111.142 402.165 111.844 407.228 112.035C409.745 112.129 412.27 112.09 414.768 111.793C417.141 111.51 419.421 110.952 421.657 110.215C424.373 109.32 427.095 108.206 429.922 107.541C429.946 107.261 429.964 106.985 429.977 106.713C429.074 106.916 428.183 107.163 427.306 107.437ZM337.491 119.202C339.868 119.886 342.266 120.076 344.754 120.089C345.965 120.095 347.434 120.159 348.354 120.95C348.669 121.221 349 121.704 348.778 122.093C348.547 122.498 347.841 122.539 347.393 122.579C344.808 122.808 342.188 122.646 339.646 122.192C337.963 121.892 336.314 121.468 334.704 120.951L334.704 120.951C335.14 120.235 335.558 119.482 335.954 118.697C336.457 118.882 336.969 119.052 337.491 119.202ZM338.903 110.177C338.9 110.187 338.899 110.198 338.897 110.208C338.899 110.198 338.9 110.187 338.903 110.177Z" fill="#915319"/>
<ellipse cx="3.1137" cy="10.1062" rx="3.1137" ry="10.1062" transform="matrix(0.958639 0.284624 -0.336342 0.94174 329.798 102.559)" fill="#794513"/>
<path d="M26.9219 128.541V128.541C27.0879 126.609 26.9881 124.861 26.6348 123.404L26.6347 123.403C26.5702 123.137 26.4979 122.88 26.4164 122.634C26.4164 122.633 26.4164 122.633 26.4163 122.633C25.9909 121.348 25.3358 120.347 24.4592 119.724L24.4591 119.724C24.2074 119.545 23.9377 119.396 23.6498 119.282C23.6497 119.282 23.6496 119.282 23.6496 119.282C23.5416 119.239 23.4323 119.199 23.3193 119.165C22.8274 119.02 22.3088 118.976 21.7726 119.018L21.7737 119.014H-68.1458C-72.2821 118.677 -77.8173 124.319 -80.9188 132.251C-84.2298 140.718 -83.5131 148.587 -79.3179 149.827C-78.9638 149.932 -78.5952 149.982 -78.217 149.988L-78.2208 150H12.8306L12.8374 149.976C14.9255 149.827 17.2965 148.3 19.5055 145.828C19.5059 145.828 19.5061 145.828 19.5065 145.827C19.6389 145.679 19.7705 145.528 19.9017 145.373C19.9023 145.372 19.9029 145.371 19.9035 145.371C21.2598 143.768 22.543 141.813 23.6477 139.604C23.6479 139.604 23.648 139.603 23.6482 139.603C24.105 138.689 24.5321 137.734 24.9202 136.742C24.9699 136.615 25.0157 136.488 25.0636 136.362C25.3018 135.731 25.5193 135.103 25.713 134.482C25.713 134.482 25.7131 134.482 25.7131 134.482C25.7992 134.206 25.8816 133.931 25.959 133.657C25.9592 133.657 25.9594 133.656 25.9596 133.655C26.4658 131.866 26.7844 130.141 26.9219 128.541Z" fill="#C27222"/>
<path d="M-0.00159454 141.167C-5.29522 140.844 -10.5663 140.295 -15.858 139.952C-21.1795 139.607 -26.4989 139.569 -31.8269 139.825C-37.8616 140.114 -43.8692 140.709 -49.8721 141.304C-50.4495 141.361 -50.4561 142.156 -49.8721 142.098C-39.1339 141.034 -28.381 140.045 -17.5618 140.643C-7.19175 141.217 3.1689 142.771 13.583 142.008C16.8217 141.77 20.0404 141.306 23.1603 140.54C23.3265 140.233 23.4892 139.921 23.6482 139.603C16.0559 141.6 7.87013 141.647 -0.00159454 141.167Z" fill="#915319"/>
<path d="M17.1169 136.506C16.6807 136.973 16.7134 137.607 17.212 138.031C17.803 138.532 18.6346 138.467 19.383 138.358C20.2897 138.227 21.1917 138.065 22.0871 137.884C22.9659 137.707 23.8367 137.503 24.702 137.282C24.7756 137.103 24.8491 136.923 24.9202 136.742C24.9699 136.615 25.0157 136.488 25.0636 136.361C24.5228 136.506 23.98 136.645 23.4333 136.773C21.9288 137.124 20.3488 137.503 18.7951 137.637C18.4799 137.664 18.1077 137.673 17.8621 137.471C17.5799 137.24 17.7893 136.996 18.0397 136.83C18.6089 136.452 19.3479 136.206 19.9988 135.956C21.3967 135.418 22.862 135.005 24.3526 134.711C24.8038 134.622 25.2577 134.548 25.713 134.482C25.7994 134.205 25.882 133.93 25.9596 133.655C23.6138 133.96 21.3205 134.547 19.1616 135.418C18.4701 135.697 17.6107 135.976 17.1169 136.506Z" fill="#915319"/>
<path d="M3.75989 146.166C1.92078 146.114 0.0841064 146.012 -1.74821 145.865C-2.33334 145.818 -2.32964 146.613 -1.74821 146.659C4.78423 147.184 11.3754 147.104 17.8873 146.41C18.294 146.367 18.6989 146.312 19.1049 146.264C19.3734 145.98 19.6397 145.682 19.9035 145.371C14.5625 146.047 9.15604 146.318 3.75989 146.166Z" fill="#915319"/>
<path d="M-23.9707 128.152C-22.0158 128.467 -20.0516 127.983 -18.3432 127.158C-14.8867 125.489 -12.467 122.549 -8.8646 121.078C-6.64051 120.169 -4.14167 119.918 -1.72378 119.714C0.951874 119.487 3.62868 119.271 6.30484 119.05C6.44703 119.038 6.58918 119.026 6.73129 119.014H-2.82017C-3.35842 119.07 -3.89619 119.128 -4.43187 119.197C-6.6373 119.481 -8.78649 120.007 -10.689 121.043C-13.9913 122.841 -16.466 125.834 -20.1918 127.035C-21.9922 127.615 -24.3637 127.743 -25.8544 126.497C-26.9358 125.593 -27.1876 123.667 -25.8562 122.828C-24.9386 122.25 -23.6782 122.483 -22.6749 122.728C-21.5143 123.01 -20.3438 123.383 -19.1195 123.224C-17.4497 123.008 -15.8562 121.242 -17.2268 119.93C-18.1488 119.046 -19.7122 119.21 -20.9997 119.014H-23.0119C-22.2574 119.64 -21.1518 119.823 -20.0204 119.923C-19.3341 119.983 -18.3588 119.99 -17.8728 120.491C-17.1909 121.195 -18.0416 122.091 -18.8336 122.352C-20.0139 122.74 -21.3791 122.213 -22.5165 121.941C-23.5546 121.693 -24.7017 121.532 -25.7355 121.881C-27.2931 122.407 -27.8757 123.923 -27.5881 125.269C-27.2531 126.836 -25.7169 127.87 -23.9707 128.152Z" fill="#915319"/>
<path d="M24.306 128.437C22.0929 129.128 19.9468 129.97 17.7367 130.668C15.4503 131.39 13.1011 131.893 10.6791 132.114C5.56068 132.579 0.415451 132.022 -4.67783 131.584C-7.21873 131.365 -9.76473 131.171 -12.3189 131.132C-14.9312 131.091 -17.5426 131.193 -20.1514 131.299C-25.385 131.511 -30.685 131.745 -35.857 130.849C-44.2253 129.401 -53.2493 125.305 -61.6058 129.106C-62.468 129.498 -63.2634 129.979 -63.9807 130.536C-63.0011 124.722 -64.1927 120.092 -67.3279 119.165C-67.5933 119.087 -67.8664 119.037 -68.1458 119.014C-72.2821 118.677 -77.8173 124.319 -80.9188 132.251C-84.2298 140.718 -83.5131 148.587 -79.3179 149.827C-78.9638 149.932 -78.5952 149.982 -78.217 149.988C-75.9682 150.025 -73.3435 148.368 -70.9308 145.589C-63.8801 147.31 -56.4806 147.847 -49.1886 147.179C-44.9635 146.792 -40.7921 146.079 -36.6004 145.494C-32.3134 144.896 -28.0028 144.517 -23.6589 144.475C-18.7935 144.428 -13.9271 144.762 -9.13115 145.475C-8.55618 145.561 -8.30914 144.795 -8.88832 144.709C-17.3804 143.447 -26.0327 143.367 -34.559 144.425C-38.8 144.952 -43.001 145.702 -47.2496 146.185C-51.444 146.661 -55.6673 146.808 -59.887 146.513C-63.4272 146.266 -66.9345 145.723 -70.3567 144.904C-69.7991 144.21 -69.2559 143.457 -68.7345 142.651C-64.6232 143.985 -60.2443 144.736 -55.8536 144.394C-54.8346 144.314 -53.4953 144.157 -53.2724 143.094C-53.0544 142.055 -54.0524 141.174 -55.0493 140.775C-56.3046 140.273 -57.6883 140.296 -59.0404 140.296C-60.3832 140.297 -61.7171 140.193 -63.033 139.957C-64.2858 139.731 -65.5094 139.394 -66.6875 138.964C-66.6883 138.966 -66.6892 138.967 -66.6901 138.969C-66.3489 138.25 -66.0262 137.507 -65.727 136.742C-65.0788 135.084 -64.5871 133.45 -64.2436 131.884C-61.9354 129.611 -58.3942 128.577 -54.9665 128.371C-50.3371 128.092 -45.8595 129.337 -41.4653 130.433C-39.0868 131.026 -36.6928 131.585 -34.2401 131.893C-31.661 132.217 -29.0556 132.308 -26.4522 132.285C-21.2719 132.24 -16.1005 131.777 -10.9174 131.962C-5.85315 132.142 -0.835144 132.844 4.22836 133.035C6.74459 133.129 9.26978 133.09 11.7677 132.793C14.141 132.51 16.4209 131.952 18.6575 131.215C21.3729 130.32 24.0948 129.206 26.9219 128.541C26.946 128.261 26.9644 127.985 26.9774 127.713C26.0741 127.916 25.1826 128.163 24.306 128.437ZM-65.5091 140.202C-63.132 140.886 -60.7344 141.076 -58.2464 141.089C-57.0352 141.095 -55.5662 141.159 -54.6457 141.95C-54.3305 142.221 -54.0004 142.704 -54.2219 143.093C-54.4526 143.498 -55.1588 143.539 -55.6067 143.579C-58.1923 143.808 -60.8119 143.646 -63.3541 143.192C-65.0373 142.892 -66.6859 142.468 -68.2961 141.951L-68.2961 141.951C-67.8601 141.235 -67.442 140.482 -67.0463 139.697C-66.5426 139.882 -66.0308 140.052 -65.5091 140.202ZM-64.0975 131.177C-64.0996 131.187 -64.1013 131.198 -64.1034 131.208C-64.1013 131.198 -64.0995 131.187 -64.0975 131.177Z" fill="#915319"/>
<path d="M346.491 104.484C351.169 101.149 353.433 95.6957 352.932 90.3578C348.049 88.1445 342.155 88.5077 337.478 91.8427C332.801 95.1777 330.536 100.631 331.037 105.969C335.92 108.182 341.814 107.819 346.491 104.484Z" fill="#006838"/>
<path d="M336.167 96.0493C335.745 91.9392 333.141 88.5846 329.625 87C326.505 89.2662 324.637 93.0802 325.059 97.1903C325.481 101.3 328.086 104.655 331.601 106.24C334.721 103.973 336.59 100.159 336.167 96.0493Z" fill="#009444"/>
<path d="M-6.16688 113.049C-5.74471 108.939 -3.14007 105.585 0.375363 104C3.49525 106.266 5.36357 110.08 4.9414 114.19C4.51923 118.3 1.91459 121.655 -1.60084 123.24C-4.72072 120.973 -6.58904 117.159 -6.16688 113.049Z" fill="#009444"/>
</g>
<path d="M238.725 100H159.43C155.372 100 152.077 103.266 152.077 107.289V129H246.077V107.289C246.077 103.266 242.783 100 238.725 100Z" fill="url(#paint4_linear_77_645)"/>
<path d="M235.891 97H232.264C231.057 97 230.077 97.9113 230.077 99.0337V129H238.077V99.0337C238.077 97.9113 237.098 97 235.891 97Z" fill="url(#paint5_linear_77_645)"/>
<path d="M218.891 97H215.264C214.057 97 213.077 97.9113 213.077 99.0337V129H221.077V99.0337C221.077 97.9113 220.098 97 218.891 97Z" fill="url(#paint6_linear_77_645)"/>
<path d="M200.891 97H197.264C196.057 97 195.077 97.9113 195.077 99.0337V129H203.077V99.0337C203.077 97.9113 202.098 97 200.891 97Z" fill="url(#paint7_linear_77_645)"/>
<path d="M183.891 97H180.264C179.057 97 178.077 97.9113 178.077 99.0337V129H186.077V99.0337C186.077 97.9113 185.098 97 183.891 97Z" fill="url(#paint8_linear_77_645)"/>
<path d="M297.938 120.148L300.077 126L288.077 123.791L292.287 119.108C293.961 117.247 297.087 117.822 297.938 120.148Z" fill="url(#paint9_linear_77_645)"/>
<path d="M283.938 117.148L286.077 123L274.077 120.791L278.287 116.108C279.961 114.247 283.087 114.822 283.938 117.148Z" fill="url(#paint10_linear_77_645)"/>
<path d="M269.938 114.148L272.077 120L260.077 117.791L264.287 113.108C265.961 111.247 269.087 111.822 269.938 114.148Z" fill="url(#paint11_linear_77_645)"/>
<path d="M255.938 112.148L258.077 118L246.077 115.791L250.287 111.108C251.961 109.247 255.087 109.822 255.938 112.148Z" fill="url(#paint12_linear_77_645)"/>
<path d="M246.077 115V129H304.644C306.383 129 306.62 126.489 304.912 126.165L246.077 115Z" fill="url(#paint13_linear_77_645)"/>
<path d="M166.608 96.5819H163.144C161.992 96.5819 161.057 97.5051 161.057 98.6422V129H168.696V98.6422C168.696 97.5051 167.76 96.5819 166.608 96.5819Z" fill="url(#paint14_linear_77_645)"/>
<path d="M167.077 120H81.0774V123.242C81.0774 126.42 83.0374 129 85.4516 129H167.077V120Z" fill="url(#paint15_linear_77_645)"/>
<path d="M167.077 104H70.0774V114.285C70.0774 117.439 72.1951 120 74.8035 120H167.077V104Z" fill="url(#paint16_linear_77_645)"/>
<path d="M110.761 101H108.239C107.003 101 106 102.267 106 103.828V120H113V103.828C113 102.267 111.997 101 110.761 101Z" fill="url(#paint17_linear_77_645)"/>
<path d="M101.761 101H99.2391C98.0033 101 96.9999 102.267 96.9999 103.828V120H104V103.828C104 102.267 102.997 101 101.761 101Z" fill="url(#paint18_linear_77_645)"/>
<path d="M76.4999 110.441C72.9101 110.441 69.9999 107.531 69.9999 103.941C69.9999 100.351 72.9101 97.4407 76.4999 97.4407C80.0898 97.4407 82.9999 100.351 82.9999 103.941C82.9999 107.531 80.0898 110.441 76.4999 110.441Z" fill="url(#paint19_linear_77_645)"/>
<path d="M77 107C75.3431 107 74 105.657 74 104C74 102.343 75.3431 101 77 101C78.6568 101 80 102.343 80 104C80 105.657 78.6568 107 77 107Z" fill="#203141"/>
<path d="M87.8581 110.441C84.2683 110.441 81.3582 107.531 81.3582 103.941C81.3582 100.351 84.2683 97.4407 87.8581 97.4407C91.448 97.4407 94.3582 100.351 94.3582 103.941C94.3582 107.531 91.448 110.441 87.8581 110.441Z" fill="url(#paint20_linear_77_645)"/>
<path d="M88 107C86.3431 107 84.9999 105.657 84.9999 104C84.9999 102.343 86.3431 101 88 101C89.6568 101 90.9999 102.343 90.9999 104C90.9999 105.657 89.6568 107 88 107Z" fill="#203141"/>
<path d="M153.676 117C146.497 117 140.676 111.18 140.676 104C140.676 96.8203 146.497 91 153.676 91C160.856 91 166.676 96.8203 166.676 104C166.676 111.18 160.856 117 153.676 117Z" fill="url(#paint21_linear_77_645)"/>
<path d="M153.577 111.582C149.435 111.582 146.077 108.224 146.077 104.082C146.077 99.9398 149.435 96.5819 153.577 96.5819C157.72 96.5819 161.077 99.9398 161.077 104.082C161.077 108.224 157.72 111.582 153.577 111.582Z" fill="url(#paint22_radial_77_645)"/>
<g style="mix-blend-mode:soft-light">
<ellipse cx="150.845" cy="101.504" rx="2.73846" ry="4.7877" transform="rotate(42.7242 150.845 101.504)" fill="url(#paint23_linear_77_645)"/>
</g>
<path d="M153.577 108.279C152.749 108.279 152.077 106.488 152.077 104.279C152.077 102.07 152.749 100.279 153.577 100.279C154.406 100.279 155.077 102.07 155.077 104.279C155.077 106.488 154.406 108.279 153.577 108.279Z" fill="#203141"/>
<path d="M128.817 117C121.637 117 115.817 111.18 115.817 104C115.817 96.8203 121.637 91 128.817 91C135.997 91 141.817 96.8203 141.817 104C141.817 111.18 135.997 117 128.817 117Z" fill="url(#paint24_linear_77_645)"/>
<path d="M128.577 111.582C124.435 111.582 121.077 108.224 121.077 104.082C121.077 99.9398 124.435 96.5819 128.577 96.5819C132.72 96.5819 136.077 99.9398 136.077 104.082C136.077 108.224 132.72 111.582 128.577 111.582Z" fill="url(#paint25_radial_77_645)"/>
<path d="M128.577 108.279C127.749 108.279 127.077 106.488 127.077 104.279C127.077 102.07 127.749 100.279 128.577 100.279C129.406 100.279 130.077 102.07 130.077 104.279C130.077 106.488 129.406 108.279 128.577 108.279Z" fill="#203141"/>
<path d="M164.16 120L161.269 122.934C159.87 124.355 157.601 124.355 156.202 122.934L153.516 120H164.16Z" fill="url(#paint26_angular_77_645)"/>
<path d="M153.316 120L150.426 122.934C149.026 124.355 146.757 124.355 145.358 122.934L142.491 120H153.316Z" fill="url(#paint27_angular_77_645)"/>
<path d="M105.797 120L102.907 122.934C101.508 124.355 99.2389 124.355 97.8395 122.934L94.9536 120H105.797Z" fill="url(#paint28_angular_77_645)"/>
<path d="M94.9536 120L92.0634 122.934C90.664 124.355 88.3951 124.355 86.9957 122.934L84.0774 120H94.9536Z" fill="url(#paint29_angular_77_645)"/>
<g style="mix-blend-mode:soft-light">
<ellipse cx="126.26" cy="101.504" rx="2.73846" ry="4.7877" transform="rotate(42.7242 126.26 101.504)" fill="url(#paint30_linear_77_645)"/>
</g>
<defs>
<linearGradient id="paint0_linear_77_645" x1="229.5" y1="3" x2="229.5" y2="160" gradientUnits="userSpaceOnUse">
<stop stop-color="#1AC4FF" stop-opacity="0"/>
<stop offset="0.244217" stop-color="#1AC4FF" stop-opacity="0.2"/>
<stop offset="0.468509" stop-color="#1AC4FF"/>
<stop offset="1" stop-color="#1AC4FF"/>
</linearGradient>
<linearGradient id="paint1_linear_77_645" x1="229.5" y1="0" x2="229.5" y2="51" gradientUnits="userSpaceOnUse">
<stop stop-color="#5FD6FF" stop-opacity="0"/>
<stop offset="0.74519" stop-color="#5FD6FF" stop-opacity="0.9"/>
<stop offset="1" stop-color="#5FD6FF"/>
</linearGradient>
<linearGradient id="paint2_linear_77_645" x1="345.5" y1="66" x2="345.5" y2="107" gradientUnits="userSpaceOnUse">
<stop stop-color="white" stop-opacity="0.8"/>
<stop offset="1" stop-color="white"/>
</linearGradient>
<linearGradient id="paint3_linear_77_645" x1="19.5" y1="119" x2="19.5" y2="87" gradientUnits="userSpaceOnUse">
<stop stop-color="white"/>
<stop offset="1" stop-color="white" stop-opacity="0.8"/>
</linearGradient>
<linearGradient id="paint4_linear_77_645" x1="199.077" y1="100" x2="199.077" y2="129" gradientUnits="userSpaceOnUse">
<stop stop-color="#00A081"/>
<stop offset="1" stop-color="#00634F"/>
</linearGradient>
<linearGradient id="paint5_linear_77_645" x1="234.077" y1="97" x2="234.077" y2="129" gradientUnits="userSpaceOnUse">
<stop stop-color="#00DAB3"/>
<stop offset="1" stop-color="#009C80"/>
</linearGradient>
<linearGradient id="paint6_linear_77_645" x1="217.077" y1="97" x2="217.077" y2="129" gradientUnits="userSpaceOnUse">
<stop stop-color="#00DAB3"/>
<stop offset="1" stop-color="#009C80"/>
</linearGradient>
<linearGradient id="paint7_linear_77_645" x1="199.077" y1="97" x2="199.077" y2="129" gradientUnits="userSpaceOnUse">
<stop stop-color="#00DAB3"/>
<stop offset="1" stop-color="#009C80"/>
</linearGradient>
<linearGradient id="paint8_linear_77_645" x1="182.077" y1="97" x2="182.077" y2="129" gradientUnits="userSpaceOnUse">
<stop stop-color="#00DAB3"/>
<stop offset="1" stop-color="#009C80"/>
</linearGradient>
<linearGradient id="paint9_linear_77_645" x1="294.077" y1="118" x2="294.077" y2="126" gradientUnits="userSpaceOnUse">
<stop stop-color="#00634F"/>
<stop offset="1" stop-color="#00A081"/>
</linearGradient>
<linearGradient id="paint10_linear_77_645" x1="280.077" y1="115" x2="280.077" y2="123" gradientUnits="userSpaceOnUse">
<stop stop-color="#00634F"/>
<stop offset="1" stop-color="#00A081"/>
</linearGradient>
<linearGradient id="paint11_linear_77_645" x1="266.077" y1="112" x2="266.077" y2="120" gradientUnits="userSpaceOnUse">
<stop stop-color="#00634F"/>
<stop offset="1" stop-color="#00A081"/>
</linearGradient>
<linearGradient id="paint12_linear_77_645" x1="252.077" y1="110" x2="252.077" y2="118" gradientUnits="userSpaceOnUse">
<stop stop-color="#00634F"/>
<stop offset="1" stop-color="#00A081"/>
</linearGradient>
<linearGradient id="paint13_linear_77_645" x1="276.077" y1="115" x2="276.077" y2="129" gradientUnits="userSpaceOnUse">
<stop stop-color="#00DAB3"/>
<stop offset="1" stop-color="#009C80"/>
</linearGradient>
<linearGradient id="paint14_linear_77_645" x1="164.876" y1="96.5819" x2="164.876" y2="129" gradientUnits="userSpaceOnUse">
<stop stop-color="#00DAB3"/>
<stop offset="1" stop-color="#009C80"/>
</linearGradient>
<linearGradient id="paint15_linear_77_645" x1="124.077" y1="120" x2="124.077" y2="129" gradientUnits="userSpaceOnUse">
<stop stop-color="#00634F"/>
<stop offset="1" stop-color="#00A081"/>
</linearGradient>
<linearGradient id="paint16_linear_77_645" x1="118.577" y1="104" x2="118.577" y2="120" gradientUnits="userSpaceOnUse">
<stop stop-color="#00DAB3"/>
<stop offset="1" stop-color="#009C80"/>
</linearGradient>
<linearGradient id="paint17_linear_77_645" x1="109.5" y1="101" x2="109.5" y2="120" gradientUnits="userSpaceOnUse">
<stop stop-color="#00A081"/>
<stop offset="1" stop-color="#00634F"/>
</linearGradient>
<linearGradient id="paint18_linear_77_645" x1="100.5" y1="101" x2="100.5" y2="120" gradientUnits="userSpaceOnUse">
<stop stop-color="#00A081"/>
<stop offset="1" stop-color="#00634F"/>
</linearGradient>
<linearGradient id="paint19_linear_77_645" x1="76.4999" y1="97.4407" x2="76.4999" y2="110.441" gradientUnits="userSpaceOnUse">
<stop stop-color="#00A081"/>
<stop offset="1" stop-color="#00634F"/>
</linearGradient>
<linearGradient id="paint20_linear_77_645" x1="87.8582" y1="97.4407" x2="87.8582" y2="110.441" gradientUnits="userSpaceOnUse">
<stop stop-color="#00A081"/>
<stop offset="1" stop-color="#00634F"/>
</linearGradient>
<linearGradient id="paint21_linear_77_645" x1="153.676" y1="91" x2="153.676" y2="117" gradientUnits="userSpaceOnUse">
<stop stop-color="#00DAB3"/>
<stop offset="1" stop-color="#009C80"/>
</linearGradient>
<radialGradient id="paint22_radial_77_645" cx="0" cy="0" r="1" gradientUnits="userSpaceOnUse" gradientTransform="translate(150.5 98.5) rotate(61.3895) scale(12.53)">
<stop stop-color="#FFE9B4"/>
<stop offset="1" stop-color="#DEBB63"/>
</radialGradient>
<linearGradient id="paint23_linear_77_645" x1="153.076" y1="101.502" x2="148.61" y2="101.361" gradientUnits="userSpaceOnUse">
<stop stop-color="white" stop-opacity="0"/>
<stop offset="1" stop-color="white"/>
</linearGradient>
<linearGradient id="paint24_linear_77_645" x1="128.817" y1="91" x2="128.817" y2="117" gradientUnits="userSpaceOnUse">
<stop stop-color="#00DAB3"/>
<stop offset="1" stop-color="#009C80"/>
</linearGradient>
<radialGradient id="paint25_radial_77_645" cx="0" cy="0" r="1" gradientUnits="userSpaceOnUse" gradientTransform="translate(125.5 98.5) rotate(61.3895) scale(12.53)">
<stop stop-color="#FFE9B4"/>
<stop offset="1" stop-color="#DEBB63"/>
</radialGradient>
<radialGradient id="paint26_angular_77_645" cx="0" cy="0" r="1" gradientUnits="userSpaceOnUse" gradientTransform="translate(158.838 122) rotate(-87.677) scale(4.00329 5.61257)">
<stop stop-color="white"/>
<stop offset="0.508625" stop-color="#E4F2F6"/>
<stop offset="1" stop-color="#C8E5EC"/>
</radialGradient>
<radialGradient id="paint27_angular_77_645" cx="0" cy="0" r="1" gradientUnits="userSpaceOnUse" gradientTransform="translate(147.903 122) rotate(-87.6375) scale(4.0034 5.70789)">
<stop stop-color="white"/>
<stop offset="0.508625" stop-color="#E4F2F6"/>
<stop offset="1" stop-color="#C8E5EC"/>
</radialGradient>
<radialGradient id="paint28_angular_77_645" cx="0" cy="0" r="1" gradientUnits="userSpaceOnUse" gradientTransform="translate(100.375 122) rotate(-87.6333) scale(4.00341 5.71788)">
<stop stop-color="white"/>
<stop offset="0.508625" stop-color="#E4F2F6"/>
<stop offset="1" stop-color="#C8E5EC"/>
</radialGradient>
<radialGradient id="paint29_angular_77_645" cx="0" cy="0" r="1" gradientUnits="userSpaceOnUse" gradientTransform="translate(89.5155 122) rotate(-87.6263) scale(4.00344 5.73495)">
<stop stop-color="white"/>
<stop offset="0.508625" stop-color="#E4F2F6"/>
<stop offset="1" stop-color="#C8E5EC"/>
</radialGradient>
<linearGradient id="paint30_linear_77_645" x1="128.491" y1="101.502" x2="124.025" y2="101.361" gradientUnits="userSpaceOnUse">
<stop stop-color="white" stop-opacity="0"/>
<stop offset="1" stop-color="white"/>
</linearGradient>
</defs>
</svg>
