<svg width="17" height="17" viewBox="0 0 17 17" fill="none" xmlns="http://www.w3.org/2000/svg">
<path d="M1.30005 13.7V2.9C1.30005 2.26348 1.55291 1.65303 2.00299 1.20294C2.45308 0.752856 3.06353 0.5 3.70005 0.5H14.9C15.1122 0.5 15.3157 0.584285 15.4657 0.734315C15.6158 0.884344 15.7 1.08783 15.7 1.3V15.7C15.7 15.9122 15.6158 16.1157 15.4657 16.2657C15.3157 16.4157 15.1122 16.5 14.9 16.5H4.10005C3.35744 16.5 2.64525 16.205 2.12015 15.6799C1.59505 15.1548 1.30005 14.4426 1.30005 13.7ZM14.1 14.9V12.5H4.10005C3.78179 12.5 3.47656 12.6264 3.25152 12.8515C3.02648 13.0765 2.90005 13.3817 2.90005 13.7C2.90005 14.0183 3.02648 14.3235 3.25152 14.5485C3.47656 14.7736 3.78179 14.9 4.10005 14.9H14.1ZM6.90005 2.1H3.70005C3.48788 2.1 3.28439 2.18429 3.13436 2.33431C2.98433 2.48434 2.90005 2.68783 2.90005 2.9V11.1696C3.275 10.9916 3.68497 10.8994 4.10005 10.9H14.1V2.1H12.5V8.5L9.70005 6.9L6.90005 8.5V2.1Z" fill="white"/>
</svg>
