<svg width="17" height="17" viewBox="0 0 17 17" fill="none" xmlns="http://www.w3.org/2000/svg">
<path d="M8.5 3.7V6.1" stroke="white" stroke-width="1.5" stroke-linecap="round" stroke-linejoin="round"/>
<path d="M8.5 11.7V13.3" stroke="white" stroke-width="1.5" stroke-linecap="round" stroke-linejoin="round"/>
<path d="M8.50005 15.7C12.4765 15.7 15.7 12.4764 15.7 8.5C15.7 4.52355 12.4765 1.3 8.50005 1.3C4.5236 1.3 1.30005 4.52355 1.30005 8.5C1.30005 12.4764 4.5236 15.7 8.50005 15.7Z" stroke="white" stroke-width="1.5" stroke-linecap="round" stroke-linejoin="round"/>
<path d="M6.69998 11.7H9.39998C9.7978 11.7 10.1793 11.5525 10.4606 11.2899C10.7419 11.0274 10.9 10.6713 10.9 10.3C10.9 9.9287 10.7419 9.5726 10.4606 9.31005C10.1793 9.0475 9.7978 8.9 9.39998 8.9H7.59998C7.20215 8.9 6.82062 8.7525 6.53932 8.48995C6.25801 8.2274 6.09998 7.8713 6.09998 7.5C6.09998 7.1287 6.25801 6.7726 6.53932 6.51005C6.82062 6.2475 7.20215 6.1 7.59998 6.1H10.3" stroke="white" stroke-width="1.5" stroke-linecap="round" stroke-linejoin="round"/>
</svg>
