<svg width="17" height="17" viewBox="0 0 17 17" fill="none" xmlns="http://www.w3.org/2000/svg">
<g clip-path="url(#clip0_239_310)">
<path d="M9.22727 1.3V2.0579H14.3182V3.57369H9.22727V14.1842H12.1364V15.7H4.86364V14.1842H7.77273V3.57369H2.68182V2.0579H7.77273V1.3H9.22727ZM3.40909 4.59154L5.46582 6.73562C5.99236 7.28358 6.31818 8.04148 6.31818 8.87895C6.31818 10.5539 5.01636 11.9105 3.40909 11.9105C1.80182 11.9105 0.5 10.5539 0.5 8.87895C0.5 8.04148 0.825818 7.28358 1.35236 6.73562L3.40909 4.59154ZM13.5909 4.59154L15.6476 6.73562C16.1742 7.28358 16.5 8.04148 16.5 8.87895C16.5 10.5539 15.1982 11.9105 13.5909 11.9105C11.9836 11.9105 10.6818 10.5539 10.6818 8.87895C10.6818 8.04148 11.0076 7.28358 11.5342 6.73562L13.5909 4.59154ZM3.40909 6.73562L2.38073 7.80729C2.10873 8.09074 1.95455 8.46969 1.95455 8.87895C1.95455 9.71642 2.60545 10.3947 3.40909 10.3947C4.21273 10.3947 4.86364 9.71642 4.86364 8.87895C4.86364 8.46969 4.70945 8.09074 4.43745 7.80729L3.40909 6.73562ZM13.5909 6.73562L12.5625 7.80729C12.2905 8.09074 12.1364 8.46969 12.1364 8.87895C12.1364 9.71642 12.7873 10.3947 13.5909 10.3947C14.3945 10.3947 15.0455 9.71642 15.0455 8.87895C15.0455 8.46969 14.8913 8.09074 14.6193 7.80729L13.5909 6.73562Z" fill="white"/>
</g>
<defs>
<clipPath id="clip0_239_310">
<rect width="16" height="16" fill="white" transform="translate(0.5 0.5)"/>
</clipPath>
</defs>
</svg>
