<svg width="16" height="16" viewBox="0 0 16 16" fill="none" xmlns="http://www.w3.org/2000/svg">
<path d="M0.800003 13.2V2.4C0.800003 1.76348 1.05286 1.15303 1.50295 0.702944C1.95303 0.252856 2.56348 0 3.2 0H14.4C14.6122 0 14.8157 0.0842854 14.9657 0.234315C15.1157 0.384344 15.2 0.587827 15.2 0.8V15.2C15.2 15.4122 15.1157 15.6157 14.9657 15.7657C14.8157 15.9157 14.6122 16 14.4 16H3.6C2.8574 16 2.14521 15.705 1.6201 15.1799C1.095 14.6548 0.800003 13.9426 0.800003 13.2ZM13.6 14.4V12H3.6C3.28174 12 2.97652 12.1264 2.75147 12.3515C2.52643 12.5765 2.4 12.8817 2.4 13.2C2.4 13.5183 2.52643 13.8235 2.75147 14.0485C2.97652 14.2736 3.28174 14.4 3.6 14.4H13.6ZM6.4 1.6H3.2C2.98783 1.6 2.78435 1.68429 2.63432 1.83431C2.48429 1.98434 2.4 2.18783 2.4 2.4V10.6696C2.77496 10.4916 3.18492 10.3994 3.6 10.4H13.6V1.6H12V8L9.2 6.4L6.4 8V1.6Z" fill="#BDD1DF"/>
</svg>
