<svg width="16" height="16" viewBox="0 0 16 16" fill="none" xmlns="http://www.w3.org/2000/svg">
<g clip-path="url(#clip0_405_1245)">
<path d="M8.72727 0.799988V1.55788H13.8182V3.07367H8.72727V13.6842H11.6364V15.2H4.36364V13.6842H7.27273V3.07367H2.18182V1.55788H7.27273V0.799988H8.72727ZM2.90909 4.09152L4.96582 6.23561C5.49236 6.78357 5.81818 7.54146 5.81818 8.37893C5.81818 10.0539 4.51636 11.4105 2.90909 11.4105C1.30182 11.4105 0 10.0539 0 8.37893C0 7.54146 0.325818 6.78357 0.852364 6.23561L2.90909 4.09152ZM13.0909 4.09152L15.1476 6.23561C15.6742 6.78357 16 7.54146 16 8.37893C16 10.0539 14.6982 11.4105 13.0909 11.4105C11.4836 11.4105 10.1818 10.0539 10.1818 8.37893C10.1818 7.54146 10.5076 6.78357 11.0342 6.23561L13.0909 4.09152ZM2.90909 6.23561L1.88073 7.30727C1.60873 7.59072 1.45455 7.96967 1.45455 8.37893C1.45455 9.21641 2.10545 9.89472 2.90909 9.89472C3.71273 9.89472 4.36364 9.21641 4.36364 8.37893C4.36364 7.96967 4.20945 7.59072 3.93745 7.30727L2.90909 6.23561ZM13.0909 6.23561L12.0625 7.30727C11.7905 7.59072 11.6364 7.96967 11.6364 8.37893C11.6364 9.21641 12.2873 9.89472 13.0909 9.89472C13.8945 9.89472 14.5455 9.21641 14.5455 8.37893C14.5455 7.96967 14.3913 7.59072 14.1193 7.30727L13.0909 6.23561Z" fill="#BDD1DF"/>
</g>
<defs>
<clipPath id="clip0_405_1245">
<rect width="16" height="16" fill="white"/>
</clipPath>
</defs>
</svg>
