<svg width="16" height="16" viewBox="0 0 16 16" fill="none" xmlns="http://www.w3.org/2000/svg">
<path d="M10.0761 0.0624681C9.979 0.0118961 9.87049 -0.00860767 9.76295 0.00329216C9.65541 0.015192 9.55318 0.0590171 9.46788 0.129776L4.42361 4.30768H1.15556C0.849176 4.30801 0.555432 4.43778 0.338789 4.66852C0.122146 4.89927 0.000302675 5.21214 0 5.53846V10.4616C0.000302675 10.7879 0.122146 11.1008 0.338789 11.3315C0.555432 11.5622 0.849176 11.692 1.15556 11.6923H4.42361L9.46788 15.8702C9.55321 15.941 9.65548 15.9848 9.76305 15.9967C9.87061 16.0086 9.97915 15.9881 10.0763 15.9375C10.1734 15.8869 10.2553 15.8082 10.3125 15.7105C10.3698 15.6127 10.4001 15.4998 10.4 15.3847V0.615356C10.4001 0.500135 10.3697 0.387212 10.3125 0.289458C10.2552 0.191703 10.1733 0.113051 10.0761 0.0624681Z" fill="#BDD1DF"/>
<path d="M12.8 5.60001C12.5878 5.60001 12.3844 5.66323 12.2343 5.77575C12.0843 5.88827 12 6.04088 12 6.20001V9.80001C12 9.95914 12.0843 10.1117 12.2343 10.2243C12.3843 10.3368 12.5878 10.4 12.8 10.4C13.0122 10.4 13.2157 10.3368 13.3657 10.2243C13.5157 10.1117 13.6 9.95914 13.6 9.80001V6.20001C13.6 6.04088 13.5157 5.88827 13.3657 5.77575C13.2156 5.66323 13.0122 5.60001 12.8 5.60001Z" fill="#BDD1DF"/>
<path d="M15.2 4C14.9878 4.00001 14.7844 4.07025 14.6343 4.19527C14.4843 4.32029 14.4 4.48986 14.4 4.66667V11.3333C14.4 11.5101 14.4843 11.6797 14.6343 11.8047C14.7843 11.9298 14.9878 12 15.2 12C15.4122 12 15.6157 11.9298 15.7657 11.8047C15.9157 11.6797 16 11.5101 16 11.3333V4.66667C16 4.48986 15.9157 4.32029 15.7657 4.19527C15.6156 4.07025 15.4122 4.00001 15.2 4Z" fill="#BDD1DF"/>
</svg>
