<?xml version="1.0" encoding="utf-8"?>
<svg width="51" height="50" viewBox="0 0 51 50" fill="none" xmlns="http://www.w3.org/2000/svg">
  <rect x="1.17499" y="0.888368" width="48.2234" height="48.2234" rx="24.1117" fill="black" fill-opacity="0.1"/>
  <rect x="1.17499" y="0.888368" width="48.2234" height="48.2234" rx="24.1117" stroke="white" stroke-width="1.37781"/>
  <path d="M28.1472 14.0636C28.0133 13.9939 27.8638 13.9657 27.7157 13.9821C27.5675 13.9985 27.4266 14.0589 27.3091 14.1563L20.3591 19.9127H15.8563C15.4342 19.9132 15.0294 20.092 14.7309 20.4099C14.4325 20.7278 14.2646 21.1589 14.2642 21.6085V28.3916C14.2646 28.8412 14.4325 29.2723 14.7309 29.5902C15.0294 29.9081 15.4342 30.0869 15.8563 30.0874H20.3591L27.3091 35.8437C27.4267 35.9412 27.5676 36.0016 27.7158 36.018C27.864 36.0344 28.0135 36.0061 28.1474 35.9364C28.2812 35.8666 28.394 35.7583 28.4729 35.6236C28.5517 35.4889 28.5935 35.3334 28.5934 35.1747V14.8254C28.5935 14.6666 28.5517 14.511 28.4728 14.3764C28.3939 14.2417 28.2811 14.1333 28.1472 14.0636V14.0636Z" fill="white"/>
</svg>