<svg width="51" height="50" viewBox="0 0 51 50" fill="none" xmlns="http://www.w3.org/2000/svg">
<rect x="1.30988" y="0.888368" width="48.2234" height="48.2234" rx="24.1117" fill="black" fill-opacity="0.1"/>
<rect x="1.30988" y="0.888368" width="48.2234" height="48.2234" rx="24.1117" stroke="white" stroke-width="1.37781"/>
<path d="M36.1617 26.9459L35.2448 25.5701V24.4285L36.1609 23.0543C36.2963 22.8514 36.3856 22.6212 36.4223 22.38C36.4591 22.1389 36.4424 21.8926 36.3736 21.6585C36.159 20.9519 35.8763 20.2679 35.5294 19.616C35.4136 19.4016 35.2518 19.2156 35.0555 19.0712C34.8592 18.9269 34.6334 18.8279 34.3942 18.7814L32.7714 18.4568L31.964 17.6494L31.6394 16.0266C31.5929 15.7871 31.4938 15.561 31.3492 15.3645C31.2045 15.168 31.0181 15.0062 30.8032 14.8906C30.1519 14.5444 29.4687 14.262 28.7631 14.0472C28.5292 13.9773 28.2828 13.96 28.0414 13.9966C27.8001 14.0332 27.5699 14.1229 27.3673 14.2591L25.9923 15.176H24.8507L23.4749 14.2591C23.2728 14.1226 23.0428 14.0328 22.8017 13.9962C22.5605 13.9596 22.3143 13.977 22.0807 14.0472C21.3741 14.2618 20.6901 14.5445 20.0382 14.8914C19.8235 15.0068 19.6372 15.1685 19.4929 15.3649C19.3485 15.5612 19.2497 15.7873 19.2036 16.0266L18.879 17.6494L18.0716 18.4568L16.4472 18.7814C16.208 18.8278 15.9821 18.9268 15.7859 19.0713C15.5897 19.2158 15.4281 19.4021 15.3128 19.6168C14.9663 20.2683 14.6836 20.9518 14.4686 21.6577C14.3985 21.8914 14.3812 22.1378 14.4178 22.379C14.4544 22.6203 14.5441 22.8504 14.6805 23.0527L15.5982 24.4285V25.5701L14.6797 26.9467C14.5436 27.149 14.4541 27.379 14.4176 27.6201C14.3811 27.8612 14.3986 28.1073 14.4686 28.3409C14.6833 29.0464 14.9661 29.7294 15.3128 30.3802C15.4278 30.5954 15.5894 30.7822 15.7858 30.927C15.9822 31.0718 16.2084 31.1709 16.448 31.2172L18.0716 31.5418L18.879 32.3492L19.2036 33.9712C19.2492 34.2109 19.3478 34.4374 19.4922 34.6341C19.6366 34.8308 19.8232 34.9927 20.0382 35.108C20.6895 35.4546 21.373 35.7368 22.0791 35.9506C22.3127 36.0222 22.5595 36.0405 22.8011 36.0039C23.0426 35.9674 23.2729 35.877 23.4749 35.7395L24.8507 34.8226H25.9923L27.3673 35.7395C27.6401 35.9229 27.9611 36.0213 28.2898 36.0225C28.4502 36.0223 28.6097 35.9983 28.7631 35.9514C29.4685 35.7368 30.1515 35.4544 30.8024 35.108C31.0177 34.9932 31.2045 34.8316 31.3492 34.6352C31.4939 34.4387 31.5928 34.2124 31.6386 33.9728L31.9632 32.3492L32.7714 31.5418L34.395 31.2172C34.6343 31.1704 34.8602 31.0712 35.0565 30.9266C35.2528 30.782 35.4146 30.5956 35.5302 30.381C35.8766 29.7298 36.1591 29.0466 36.3736 28.3409C36.4424 28.107 36.4592 27.8609 36.4226 27.6199C36.386 27.3788 36.2969 27.1488 36.1617 26.9459V26.9459ZM25.4212 29.911C24.4498 29.911 23.5002 29.623 22.6925 29.0833C21.8847 28.5436 21.2552 27.7765 20.8834 26.879C20.5117 25.9815 20.4144 24.994 20.6039 24.0412C20.7935 23.0884 21.2613 22.2132 21.9482 21.5263C22.6351 20.8394 23.5102 20.3716 24.463 20.1821C25.4158 19.9926 26.4033 20.0899 27.3008 20.4616C28.1983 20.8334 28.9654 21.4629 29.5051 22.2706C30.0448 23.0784 30.3329 24.028 30.3329 24.9994C30.3328 26.302 29.8154 27.5513 28.8943 28.4724C27.9731 29.3936 26.7239 29.911 25.4212 29.911V29.911Z" fill="white"/>
</svg>
