<svg width="36" height="36" viewBox="0 0 36 36" fill="none" xmlns="http://www.w3.org/2000/svg">
<rect width="36" height="36" rx="10" fill="#243E58"/>
<path d="M16.6963 15.9189C16.6963 15.512 16.5677 15.193 16.3105 14.9619C16.0534 14.7275 15.7035 14.6104 15.2607 14.6104C14.9482 14.6104 14.6325 14.6901 14.3135 14.8496C13.9945 15.0091 13.6966 15.237 13.4199 15.5332V14.6055C13.6673 14.3483 13.9473 14.1514 14.2598 14.0146C14.5755 13.8779 14.945 13.8096 15.3682 13.8096C16.0518 13.8096 16.6019 13.9935 17.0186 14.3613C17.4352 14.7259 17.6436 15.2207 17.6436 15.8457C17.6436 16.4023 17.515 16.8841 17.2578 17.291C17.0039 17.6979 16.5677 18.1146 15.9492 18.541C15.3177 18.9772 14.8945 19.2897 14.6797 19.4785C14.4681 19.6673 14.32 19.848 14.2354 20.0205C14.1507 20.193 14.1084 20.403 14.1084 20.6504H17.8682V21.5H13.1123V21.124C13.1123 20.6878 13.1709 20.3184 13.2881 20.0156C13.4085 19.7096 13.6055 19.4134 13.8789 19.127C14.1523 18.8372 14.5788 18.4906 15.1582 18.0869C15.7507 17.6702 16.1543 17.3057 16.3691 16.9932C16.5872 16.6774 16.6963 16.3193 16.6963 15.9189ZM23.3418 16.0996L21.5352 18.8193L23.3174 21.5H22.2041L21.1738 19.7812C21.1185 19.6901 21.0404 19.5501 20.9395 19.3613H20.9199C20.9167 19.3809 20.8353 19.5208 20.6758 19.7812L19.626 21.5H18.5273L20.3633 18.8486L18.6104 16.0996H19.7236L20.7344 17.9062C20.7962 18.0169 20.8711 18.1602 20.959 18.3359H20.9785L22.292 16.0996H23.3418Z" fill="#ADD7FF" fill-opacity="0.4"/>
</svg>
