<svg width="52" height="52" viewBox="0 0 52 52" fill="none" xmlns="http://www.w3.org/2000/svg">
<rect x="1" y="1" width="50" height="50" rx="25" fill="url(#paint0_linear_33_642)"/>
<rect width="52" height="52" rx="26" fill="#5C5C5C"/>
<rect x="1" y="1" width="50" height="50" rx="25" fill="url(#paint1_linear_33_642)"/>
<g style="mix-blend-mode:overlay" filter="url(#filter0_f_33_642)">
<rect x="3" y="3" width="46" height="46" rx="23" fill="url(#paint2_linear_33_642)"/>
</g>
<path fill-rule="evenodd" clip-rule="evenodd" d="M29.2352 30.4915C28.9598 30.4915 28.7365 30.7148 28.7365 30.9902C28.7365 31.2657 28.9598 31.489 29.2352 31.489H30.4398C29.4961 33.0005 27.8853 33.9878 26.0269 33.9878C23.9506 33.9878 22.1442 32.7562 21.2711 30.9476C21.1514 30.6995 20.8532 30.5955 20.6052 30.7153C20.3571 30.835 20.2531 31.1332 20.3728 31.3812C21.4008 33.5106 23.5418 34.9853 26.0269 34.9853C27.9002 34.9853 29.5497 34.1479 30.6887 32.8278V33.8221C30.6887 34.0976 30.9119 34.3209 31.1874 34.3209C31.4628 34.3209 31.6861 34.0976 31.6861 33.8221V31.4142C31.8277 31.3262 31.922 31.1692 31.922 30.9902C31.922 30.7148 31.6987 30.4915 31.4233 30.4915H29.2352Z" fill="white"/>
<path d="M30.4398 31.489L30.6519 31.6214L30.8907 31.239H30.4398V31.489ZM21.2711 30.9476L21.4962 30.8389V30.8389L21.2711 30.9476ZM20.3728 31.3812L20.1477 31.4899L20.3728 31.3812ZM30.6887 32.8278H30.9387V32.1553L30.4994 32.6645L30.6887 32.8278ZM31.6861 31.4142L31.5542 31.2018L31.4361 31.2752V31.4142H31.6861ZM28.9865 30.9902C28.9865 30.8529 29.0979 30.7415 29.2352 30.7415V30.2415C28.8217 30.2415 28.4865 30.5767 28.4865 30.9902H28.9865ZM29.2352 31.239C29.0979 31.239 28.9865 31.1276 28.9865 30.9902H28.4865C28.4865 31.4037 28.8217 31.739 29.2352 31.739V31.239ZM30.4398 31.239H29.2352V31.739H30.4398V31.239ZM30.2278 31.3566C29.3259 32.8009 27.7922 33.7378 26.0269 33.7378V34.2378C27.9784 34.2378 29.6662 33.2 30.6519 31.6214L30.2278 31.3566ZM26.0269 33.7378C24.0529 33.7378 22.3305 32.5671 21.4962 30.8389L21.046 31.0563C21.9579 32.9454 23.8482 34.2378 26.0269 34.2378V33.7378ZM21.4962 30.8389C21.3165 30.4665 20.8689 30.3104 20.4965 30.4901L20.7138 30.9404C20.8375 30.8807 20.9862 30.9326 21.046 31.0563L21.4962 30.8389ZM20.4965 30.4901C20.1241 30.6699 19.9679 31.1175 20.1477 31.4899L20.598 31.2725C20.5382 31.1488 20.5901 31.0001 20.7138 30.9404L20.4965 30.4901ZM20.1477 31.4899C21.2144 33.6996 23.4393 35.2353 26.0269 35.2353V34.7353C23.6443 34.7353 21.5871 33.3216 20.598 31.2725L20.1477 31.4899ZM26.0269 35.2353C27.9778 35.2353 29.6948 34.3624 30.8779 32.9911L30.4994 32.6645C29.4046 33.9334 27.8226 34.7353 26.0269 34.7353V35.2353ZM30.4387 32.8278V33.8221H30.9387V32.8278H30.4387ZM30.4387 33.8221C30.4387 34.2357 30.7739 34.5709 31.1874 34.5709V34.0709C31.05 34.0709 30.9387 33.9595 30.9387 33.8221H30.4387ZM31.1874 34.5709C31.6009 34.5709 31.9361 34.2357 31.9361 33.8221H31.4361C31.4361 33.9595 31.3248 34.0709 31.1874 34.0709V34.5709ZM31.9361 33.8221V31.4142H31.4361V33.8221H31.9361ZM31.672 30.9902C31.672 31.0792 31.6254 31.1575 31.5542 31.2018L31.8181 31.6265C32.03 31.4948 32.172 31.2592 32.172 30.9902H31.672ZM31.4233 30.7415C31.5606 30.7415 31.672 30.8529 31.672 30.9902H32.172C32.172 30.5767 31.8368 30.2415 31.4233 30.2415V30.7415ZM29.2352 30.7415H31.4233V30.2415H29.2352V30.7415Z" fill="white"/>
<path d="M23.5 26.0461C22.5 27.0527 21.5 28.0593 19.5 28.0593C17.5 28.0593 15 26.5494 15 23.5296C15 20.5099 17.5 19 19.5 19C22.5 19 24 21.0132 26 23.5296C28 26.0461 29.5 28.0593 32.5 28.0593C34.5 28.0593 37 26.5494 37 23.5296C37 20.5099 34.5 19 32.5 19C30.5 19 29 20.5099 28.5 21.0132" stroke="white" stroke-width="1.7" stroke-linecap="round" stroke-linejoin="round"/>
<defs>
<filter id="filter0_f_33_642" x="0.333333" y="0.333333" width="51.3333" height="51.3333" filterUnits="userSpaceOnUse" color-interpolation-filters="sRGB">
<feFlood flood-opacity="0" result="BackgroundImageFix"/>
<feBlend mode="normal" in="SourceGraphic" in2="BackgroundImageFix" result="shape"/>
<feGaussianBlur stdDeviation="1.33333" result="effect1_foregroundBlur_33_642"/>
</filter>
<linearGradient id="paint0_linear_33_642" x1="26" y1="1" x2="26" y2="51" gradientUnits="userSpaceOnUse">
<stop stop-color="#1E5EDD"/>
<stop offset="1" stop-color="#084BDC"/>
</linearGradient>
<linearGradient id="paint1_linear_33_642" x1="26" y1="1" x2="26" y2="51" gradientUnits="userSpaceOnUse">
<stop stop-color="#1E5EDD"/>
<stop offset="1" stop-color="#084BDC"/>
</linearGradient>
<linearGradient id="paint2_linear_33_642" x1="26.561" y1="3" x2="26.561" y2="49" gradientUnits="userSpaceOnUse">
<stop stop-color="white"/>
<stop offset="1" stop-color="white" stop-opacity="0"/>
</linearGradient>
</defs>
</svg>
