<svg width="52" height="52" viewBox="0 0 52 52" fill="none" xmlns="http://www.w3.org/2000/svg">
<rect x="1" y="1" width="50" height="50" rx="25" fill="url(#paint0_linear_33_642)"/>
<rect width="52" height="52" rx="26" fill="#5C5C5C"/>
<rect x="1" y="1" width="50" height="50" rx="25" fill="url(#paint1_linear_33_642)"/>
<g style="mix-blend-mode:overlay" filter="url(#filter0_f_33_642)">
<rect x="3" y="3" width="46" height="46" rx="23" fill="url(#paint2_linear_33_642)"/>
</g>
<path d="M36.9891 32.6726C36.8475 32.6726 36.7058 32.6376 36.5878 32.5676C36.1864 32.3459 36.0448 31.8441 36.2691 31.4474C37.2252 29.7671 37.7328 27.8417 37.7328 25.9047C37.7328 20.607 33.9436 15.9627 28.7143 14.8309C28.2657 14.7375 27.9824 14.2941 28.0769 13.8507C28.1713 13.4073 28.6199 13.1272 29.0684 13.2206C35.0532 14.5041 39.3972 19.8368 39.3972 25.893C39.3972 28.1218 38.8188 30.3155 37.721 32.2409C37.5676 32.5209 37.2842 32.6726 36.9891 32.6726Z" fill="white"/>
<path d="M36.9301 32.7893C36.5878 32.7893 36.2691 32.5793 36.151 32.2409L34.8998 28.7635C34.8643 28.6702 34.8525 28.5768 34.8525 28.4835C34.8525 28.1451 35.065 27.83 35.4073 27.7133C35.8441 27.5616 36.3163 27.7834 36.4697 28.2151L37.721 31.6924C37.7564 31.7858 37.7682 31.8791 37.7682 31.9725C37.7682 32.3109 37.5557 32.6259 37.2134 32.7426C37.119 32.7776 37.0245 32.7893 36.9301 32.7893Z" fill="white"/>
<path d="M36.9302 32.7893C36.6351 32.7893 36.3517 32.6376 36.1983 32.3576C35.974 31.9608 36.1275 31.4591 36.5288 31.249L39.775 29.5104C40.1764 29.3003 40.6839 29.4403 40.8964 29.8371C41.1207 30.2338 40.9672 30.7356 40.5659 30.9456L37.3197 32.6843C37.2017 32.7543 37.06 32.7893 36.9302 32.7893Z" fill="white"/>
<path d="M26.2827 38.8571C24.0044 38.8571 21.7144 38.2737 19.6604 37.0835C17.7245 35.9633 16.0955 34.3529 14.9741 32.4392C14.738 32.0542 14.8797 31.5407 15.2692 31.319C15.6588 31.0857 16.1782 31.2257 16.4024 31.6108C17.394 33.2794 18.8105 34.6797 20.5104 35.6599C25.1495 38.3437 31.1343 37.4685 34.7582 33.5595C35.0651 33.2211 35.5963 33.1977 35.9268 33.5128C36.2691 33.8162 36.2928 34.3413 35.974 34.668C33.4361 37.4102 29.883 38.8571 26.2827 38.8571Z" fill="white"/>
<path d="M19.2826 33.4194C19.2354 33.4194 19.1764 33.4194 19.1292 33.4078L15.4698 32.7193C15.0685 32.6493 14.797 32.2992 14.797 31.9141C14.797 31.8675 14.797 31.8091 14.8088 31.7624C14.8914 31.319 15.3282 31.0273 15.7768 31.109L19.4361 31.7975C19.8375 31.8791 20.109 32.2175 20.109 32.6026C20.109 32.6493 20.109 32.7076 20.0971 32.7543C20.0263 33.151 19.684 33.4194 19.2826 33.4194Z" fill="white"/>
<path d="M15.4817 36.2783C15.4699 36.2783 15.4581 36.2783 15.4463 36.2783C14.9859 36.2666 14.6318 35.8816 14.6554 35.4265L14.8089 31.8791C14.8207 31.4241 15.222 31.0623 15.6706 31.0973C16.131 31.109 16.4851 31.4941 16.4615 31.9492L16.308 35.4965C16.2844 35.9399 15.9185 36.2783 15.4817 36.2783Z" fill="white"/>
<path d="M14.5963 30.4555C14.2422 30.4555 13.9235 30.2338 13.8054 29.8954C11.8813 24.1076 14.254 17.8765 19.5424 14.7375C21.4783 13.594 23.6739 12.9638 25.9167 12.9055C26.3889 12.8705 26.7548 13.2556 26.7666 13.7107C26.7784 14.1657 26.4125 14.5391 25.9521 14.5508C23.9926 14.5975 22.0685 15.1576 20.3805 16.1495C15.7768 18.88 13.711 24.3177 15.3872 29.382C15.5289 29.8137 15.2928 30.2805 14.856 30.4205C14.7734 30.4439 14.679 30.4555 14.5963 30.4555Z" fill="white"/>
<path d="M23.7093 17.3864C23.5205 17.3864 23.3316 17.328 23.1781 17.1997C22.9775 17.0363 22.8712 16.8029 22.8712 16.5695C22.8712 16.3828 22.9302 16.1961 23.0601 16.0444L25.4328 13.2089C25.7279 12.8588 26.2473 12.8121 26.6014 13.1039C26.8021 13.2672 26.9083 13.5006 26.9083 13.734C26.9083 13.9207 26.8493 14.1074 26.7194 14.2591L24.3468 17.0946C24.1815 17.2813 23.9454 17.3864 23.7093 17.3864Z" fill="white"/>
<path d="M26.082 14.5391C25.9285 14.5391 25.7751 14.4925 25.6334 14.4108L22.6587 12.5088C22.2692 12.2637 22.1629 11.7503 22.4108 11.3769C22.6587 10.9918 23.1781 10.8868 23.5558 11.1318L26.5305 13.0339C26.9201 13.2789 27.0263 13.7923 26.7784 14.1657C26.625 14.4108 26.3535 14.5391 26.082 14.5391Z" fill="white"/>
<path d="M30.9417 24.8981L24.0052 20.7989C23.8883 20.7298 23.7546 20.6921 23.6176 20.6896C23.4807 20.6871 23.3456 20.7199 23.2261 20.7846C23.1067 20.8494 23.0072 20.9438 22.938 21.058C22.8688 21.1723 22.8323 21.3024 22.8323 21.4348V29.6338C22.8324 29.7662 22.8689 29.8962 22.9382 30.0104C23.0074 30.1246 23.1069 30.2189 23.2263 30.2836C23.3457 30.3484 23.4808 30.3812 23.6177 30.3788C23.7546 30.3763 23.8883 30.3387 24.0052 30.2697L30.9417 26.1705C31.0543 26.1039 31.1474 26.0104 31.212 25.899C31.2766 25.7876 31.3105 25.662 31.3105 25.5343C31.3105 25.4066 31.2766 25.281 31.212 25.1696C31.1474 25.0582 31.0543 24.9647 30.9417 24.8981Z" fill="white"/>
<defs>
<filter id="filter0_f_33_642" x="0.333333" y="0.333333" width="51.3333" height="51.3333" filterUnits="userSpaceOnUse" color-interpolation-filters="sRGB">
<feFlood flood-opacity="0" result="BackgroundImageFix"/>
<feBlend mode="normal" in="SourceGraphic" in2="BackgroundImageFix" result="shape"/>
<feGaussianBlur stdDeviation="1.33333" result="effect1_foregroundBlur_33_642"/>
</filter>
<linearGradient id="paint0_linear_33_642" x1="26" y1="1" x2="26" y2="51" gradientUnits="userSpaceOnUse">
<stop stop-color="#1E5EDD"/>
<stop offset="1" stop-color="#084BDC"/>
</linearGradient>
<linearGradient id="paint1_linear_33_642" x1="26" y1="1" x2="26" y2="51" gradientUnits="userSpaceOnUse">
<stop stop-color="#1E5EDD"/>
<stop offset="1" stop-color="#084BDC"/>
</linearGradient>
<linearGradient id="paint2_linear_33_642" x1="26.561" y1="3" x2="26.561" y2="49" gradientUnits="userSpaceOnUse">
<stop stop-color="white"/>
<stop offset="1" stop-color="white" stop-opacity="0"/>
</linearGradient>
</defs>
</svg>
