<svg width="78" height="78" viewBox="0 0 78 78" fill="none" xmlns="http://www.w3.org/2000/svg">
<rect x="4.71216" y="3.34937" width="68.8906" height="68.8906" rx="34.4453" fill="url(#paint0_linear_240_19023)"/>
<g filter="url(#filter0_d_240_19023)">
<rect x="4.02325" y="2.66046" width="70.2684" height="70.2684" rx="35.1342" stroke="#5C5C5C" stroke-width="1.37781" shape-rendering="crispEdges"/>
</g>
<g style="mix-blend-mode:overlay" filter="url(#filter1_f_240_19023)">
<rect x="7.02252" y="5.65967" width="63.3793" height="63.3793" rx="31.6897" fill="url(#paint1_linear_240_19023)"/>
</g>
<g clip-path="url(#clip0_240_19023)">
<path fill-rule="evenodd" clip-rule="evenodd" d="M43.6151 43.9829C43.2356 43.9829 42.9279 44.2906 42.9279 44.6701C42.9279 45.0496 43.2356 45.3572 43.6151 45.3572H45.2747C43.9744 47.4397 41.755 48.8001 39.1946 48.8001C36.3338 48.8001 33.845 47.1031 32.642 44.6112C32.477 44.2694 32.0662 44.1261 31.7245 44.2911C31.3827 44.4561 31.2394 44.8669 31.4044 45.2086C32.8206 48.1425 35.7706 50.1744 39.1946 50.1744C41.7757 50.1744 44.0484 49.0206 45.6176 47.2018V48.5718C45.6176 48.9513 45.9253 49.2589 46.3048 49.2589C46.6843 49.2589 46.9919 48.9513 46.9919 48.5718V45.2541C47.187 45.1329 47.3169 44.9167 47.3169 44.6701C47.3169 44.2906 47.0093 43.9829 46.6298 43.9829H43.6151Z" fill="white"/>
<path d="M45.2747 45.3572L45.5669 45.5397L45.8959 45.0128H45.2747V45.3572ZM32.642 44.6112L32.3318 44.7609L32.3318 44.7609L32.642 44.6112ZM31.7245 44.2911L31.5747 43.9809L31.5747 43.9809L31.7245 44.2911ZM31.4044 45.2086L31.0942 45.3584L31.4044 45.2086ZM45.6176 47.2018H45.9621V46.2752L45.3568 46.9767L45.6176 47.2018ZM46.9919 45.2541L46.8101 44.9616L46.6475 45.0626V45.2541H46.9919ZM43.2724 44.6701C43.2724 44.4808 43.4258 44.3274 43.6151 44.3274V43.6385C43.0453 43.6385 42.5835 44.1003 42.5835 44.6701H43.2724ZM43.6151 45.0128C43.4258 45.0128 43.2724 44.8593 43.2724 44.6701H42.5835C42.5835 45.2398 43.0453 45.7017 43.6151 45.7017V45.0128ZM45.2747 45.0128H43.6151V45.7017H45.2747V45.0128ZM44.9825 45.1748C43.7399 47.1648 41.6268 48.4556 39.1946 48.4556V49.1445C41.8833 49.1445 44.2088 47.7146 45.5669 45.5397L44.9825 45.1748ZM39.1946 48.4556C36.4749 48.4556 34.1016 46.8425 32.9522 44.4614L32.3318 44.7609C33.5883 47.3638 36.1928 49.1445 39.1946 49.1445V48.4556ZM32.9522 44.4614C32.7045 43.9483 32.0878 43.7332 31.5747 43.9809L31.8742 44.6013C32.0447 44.519 32.2495 44.5905 32.3318 44.7609L32.9522 44.4614ZM31.5747 43.9809C31.0616 44.2286 30.8465 44.8453 31.0942 45.3584L31.7146 45.0589C31.6323 44.8884 31.7038 44.6836 31.8742 44.6013L31.5747 43.9809ZM31.0942 45.3584C32.5639 48.403 35.6294 50.5188 39.1946 50.5188V49.8299C35.9119 49.8299 33.0774 47.8821 31.7146 45.0589L31.0942 45.3584ZM39.1946 50.5188C41.8826 50.5188 44.2483 49.3162 45.8784 47.4268L45.3568 46.9767C43.8485 48.725 41.6688 49.8299 39.1946 49.8299V50.5188ZM45.2732 47.2018V48.5718H45.9621V47.2018H45.2732ZM45.2732 48.5718C45.2732 49.1415 45.735 49.6034 46.3048 49.6034V48.9145C46.1155 48.9145 45.9621 48.761 45.9621 48.5718H45.2732ZM46.3048 49.6034C46.8745 49.6034 47.3364 49.1415 47.3364 48.5718H46.6475C46.6475 48.761 46.494 48.9145 46.3048 48.9145V49.6034ZM47.3364 48.5718V45.2541H46.6475V48.5718H47.3364ZM46.9725 44.6701C46.9725 44.7927 46.9083 44.9006 46.8101 44.9616L47.1737 45.5467C47.4657 45.3653 47.6614 45.0407 47.6614 44.6701H46.9725ZM46.6298 44.3274C46.819 44.3274 46.9725 44.4808 46.9725 44.6701H47.6614C47.6614 44.1003 47.1995 43.6385 46.6298 43.6385V44.3274ZM43.6151 44.3274H46.6298V43.6385H43.6151V44.3274Z" fill="white"/>
<path d="M35.7129 37.8581C34.3351 39.245 32.9573 40.6319 30.2017 40.6319C27.4461 40.6319 24.0015 38.5515 24.0015 34.3909C24.0015 30.2303 27.4461 28.1499 30.2017 28.1499C34.3351 28.1499 36.4018 30.9237 39.1574 34.3909C41.9131 37.8581 43.9798 40.6319 48.1132 40.6319C50.8688 40.6319 54.3134 38.5515 54.3134 34.3909C54.3134 30.2303 50.8688 28.1499 48.1132 28.1499C45.3576 28.1499 43.2908 30.2303 42.602 30.9237" stroke="white" stroke-width="2.34228" stroke-linecap="round" stroke-linejoin="round"/>
</g>
<defs>
<filter id="filter0_d_240_19023" x="0.578728" y="0.593624" width="77.1574" height="77.1575" filterUnits="userSpaceOnUse" color-interpolation-filters="sRGB">
<feFlood flood-opacity="0" result="BackgroundImageFix"/>
<feColorMatrix in="SourceAlpha" type="matrix" values="0 0 0 0 0 0 0 0 0 0 0 0 0 0 0 0 0 0 127 0" result="hardAlpha"/>
<feOffset dy="1.37781"/>
<feGaussianBlur stdDeviation="1.37781"/>
<feComposite in2="hardAlpha" operator="out"/>
<feColorMatrix type="matrix" values="0 0 0 0 0 0 0 0 0 0 0 0 0 0 0 0 0 0 0.3 0"/>
<feBlend mode="normal" in2="BackgroundImageFix" result="effect1_dropShadow_240_19023"/>
<feBlend mode="normal" in="SourceGraphic" in2="effect1_dropShadow_240_19023" result="shape"/>
</filter>
<filter id="filter1_f_240_19023" x="3.34836" y="1.98551" width="70.7277" height="70.7277" filterUnits="userSpaceOnUse" color-interpolation-filters="sRGB">
<feFlood flood-opacity="0" result="BackgroundImageFix"/>
<feBlend mode="normal" in="SourceGraphic" in2="BackgroundImageFix" result="shape"/>
<feGaussianBlur stdDeviation="1.83708" result="effect1_foregroundBlur_240_19023"/>
</filter>
<linearGradient id="paint0_linear_240_19023" x1="39.1574" y1="3.34937" x2="39.1574" y2="72.2399" gradientUnits="userSpaceOnUse">
<stop stop-color="#1E5EDD"/>
<stop offset="1" stop-color="#084BDC"/>
</linearGradient>
<linearGradient id="paint1_linear_240_19023" x1="39.4851" y1="5.65967" x2="39.4851" y2="69.039" gradientUnits="userSpaceOnUse">
<stop stop-color="white"/>
<stop offset="1" stop-color="white" stop-opacity="0"/>
</linearGradient>
<clipPath id="clip0_240_19023">
<rect width="33.0675" height="33.0675" fill="white" transform="translate(22.6237 22.6387)"/>
</clipPath>
</defs>
</svg>
