<svg width="375" height="667" viewBox="0 0 375 667" fill="none" xmlns="http://www.w3.org/2000/svg">
<rect width="375" height="667" fill="#19334C"/>
<g style="mix-blend-mode:plus-lighter" opacity="0.5">
<rect width="375" height="667" fill="url(#paint0_radial_135_10956)"/>
</g>
<g opacity="0.5">
<mask id="mask0_135_10956" style="mask-type:alpha" maskUnits="userSpaceOnUse" x="0" y="0" width="375" height="421">
<rect width="375" height="421" fill="url(#paint1_linear_135_10956)"/>
</mask>
<g mask="url(#mask0_135_10956)">
<path d="M131.695 129.933C129.18 129.314 126.617 128.675 124.423 127.299C122.228 125.923 120.427 123.658 120.288 121.072C120.148 118.486 122.125 115.765 124.714 115.688C123.452 116.104 121.805 114.522 121.834 113.193C121.863 111.865 123.416 110.818 124.659 111.289C121.829 110.254 119.293 107.81 118.305 104.963C117.317 102.116 117.676 98.8339 119.257 96.2682C120.296 94.5811 121.895 93.1783 123.812 92.6778C125.729 92.1773 127.955 92.7009 129.234 94.2144C128.401 92.152 129.913 89.2903 132.002 88.5287C134.092 87.767 136.688 89.0307 137.378 91.145C138.707 90.1433 140.058 88.8955 141.621 88.3259C143.185 87.7563 144.989 87.6493 146.475 88.3979C148.017 89.1743 149.009 90.7528 149.578 92.3824C151.281 97.2627 149.493 103.147 145.362 106.255C147.309 106.759 148.738 108.006 148.864 110.012C148.989 112.019 147.71 114.037 145.842 114.779C148.115 116.55 148.214 120.594 147.224 123.3C146.233 126.006 143.847 128.041 141.176 129.121C138.504 130.201 134.493 130.621 131.695 129.933Z" fill="white" fill-opacity="0.7"/>
<path d="M134.539 108.116L130.757 507H149.428L135.706 108.116H134.539Z" fill="white"/>
<path d="M147.652 289.668C145.409 289.484 143.278 288.058 142.324 286.01C141.23 283.662 141.757 280.657 143.585 278.821C145.476 276.922 147.609 277.445 149.716 276.914C146.847 275.518 143.824 274.745 141.792 272.013C139.787 269.319 138.979 265.676 140.01 262.48C141.042 259.285 144.033 256.719 147.386 256.526C145.89 256.156 144.675 254.039 145.33 252.645C145.985 251.251 148.01 250.739 149.249 251.653C146.513 248.799 144.355 244.562 145.195 240.698C146.035 236.834 149.378 233.512 153.315 233.149C157.253 232.785 161.343 235.773 161.783 239.703C162.184 237.943 163.819 235.23 165.405 234.368C166.991 233.506 168.86 233.246 170.656 233.43C175.014 233.879 178.966 237.077 180.313 241.246C181.661 245.414 180.328 250.321 177.057 253.235C178.548 254.508 180.138 255.791 180.632 257.689C181.126 259.586 179.924 262.031 177.963 262.025C179.97 263.192 180.614 266.717 180.072 268.974C179.531 271.232 177.401 273.009 175.083 273.138C179.455 277.84 175.523 285.029 170.965 287.95C168.829 289.319 165.606 289.292 164.084 287.262C166.454 290.457 166.035 295.395 163.16 298.145C159.072 302.056 150.72 300.248 148.285 295.214C147.438 293.462 147.489 291.238 148.638 289.668C148.309 289.696 147.979 289.695 147.652 289.668Z" fill="white" fill-opacity="0.7"/>
<path d="M139.407 295.009L138.785 293.143C145.797 290.804 154.393 287.186 158.664 279.911C163.167 272.241 161.882 262.688 160.034 252.752L161.967 252.391C163.886 262.709 165.206 272.652 160.36 280.906C155.758 288.747 146.745 292.561 139.407 295.009Z" fill="white"/>
<path d="M160.479 268.648C155.953 268.648 151.51 265.395 150.414 260.948L152.322 260.475C153.309 264.479 157.886 267.354 161.926 266.538L162.324 268.462C161.713 268.589 161.095 268.648 160.479 268.648Z" fill="white"/>
<path d="M115.582 167.986C113.526 169.162 110.791 169.028 108.861 167.655C106.93 166.282 105.905 163.743 106.341 161.415C106.778 159.086 108.652 157.09 110.949 156.51C109.807 156.096 108.238 156.361 107.038 156.551C105.838 156.74 104.294 156.385 104.025 155.201C103.866 154.502 104.254 153.77 104.809 153.317C105.364 152.864 106.062 152.633 106.744 152.412C104.838 151.886 103.566 150.79 102.45 149.158C101.323 147.508 100.758 145.414 101.201 143.465C101.644 141.516 103.197 139.789 105.16 139.409C107.123 139.029 109.345 140.217 109.884 142.142C109.363 140.876 109.394 138.61 110.606 137.974C111.818 137.337 113.482 137.771 114.228 138.919C113.608 135.46 116.485 131.701 119.982 131.357C123.478 131.014 126.927 134.083 126.991 137.596C128.055 137.189 128.946 136.601 129.842 137.304C130.737 138.007 131.316 139.047 131.68 140.125C132.886 143.698 131.751 147.943 128.922 150.437C130.954 150.417 133.534 150.849 133.99 152.828C134.446 154.808 133.369 157.034 131.534 157.905C133.596 159.175 135.684 161.354 135.3 163.746C134.916 166.137 132.994 168.209 130.637 168.77C128.281 169.331 125.632 168.348 124.211 166.386C124.281 168.672 122.895 171.107 120.63 171.419C118.364 171.73 116.132 170.206 115.582 167.986Z" fill="white" fill-opacity="0.7"/>
<path d="M132.504 161.393C129.214 161.393 125.748 160.208 122.516 157.943C118.974 155.462 116.224 152.138 113.564 148.923L115.079 147.669C117.656 150.784 120.32 154.004 123.645 156.332C127.222 158.839 131.235 159.887 134.648 159.221L135.028 161.151C134.204 161.314 133.36 161.393 132.504 161.393Z" fill="white"/>
<path d="M119.535 154.585L119.385 152.624C121.131 152.491 122.838 151.424 123.953 149.768C125.069 148.112 125.415 146.128 124.882 144.46L126.755 143.861C127.47 146.097 127.032 148.716 125.584 150.867C124.136 153.017 121.875 154.406 119.535 154.585Z" fill="white"/>
<path d="M157.338 187.161C159.394 188.337 162.129 188.203 164.059 186.83C165.99 185.457 167.015 182.918 166.578 180.59C166.142 178.261 164.267 176.266 161.971 175.685C163.113 175.271 164.682 175.536 165.882 175.726C167.082 175.915 168.626 175.56 168.895 174.376C169.054 173.677 168.666 172.946 168.111 172.493C167.556 172.04 166.857 171.809 166.176 171.587C168.082 171.061 169.354 169.966 170.469 168.333C171.597 166.683 172.162 164.589 171.719 162.64C171.275 160.691 169.722 158.964 167.76 158.584C165.797 158.204 163.575 159.392 163.036 161.317C163.557 160.051 163.526 157.786 162.314 157.149C161.102 156.512 159.438 156.946 158.692 158.094C159.312 154.635 156.434 150.876 152.938 150.532C149.441 150.189 145.993 153.258 145.928 156.771C144.865 156.365 143.973 155.776 143.078 156.479C142.182 157.182 141.603 158.222 141.239 159.3C140.034 162.873 141.169 167.118 143.997 169.612C141.966 169.592 139.386 170.024 138.93 172.003C138.473 173.983 139.55 176.209 141.386 177.08C139.323 178.35 137.235 180.529 137.619 182.921C138.003 185.312 139.926 187.384 142.282 187.945C144.639 188.506 147.288 187.523 148.709 185.561C148.639 187.847 150.024 190.282 152.29 190.594C154.556 190.905 156.788 189.381 157.338 187.161Z" fill="white" fill-opacity="0.7"/>
<path d="M140.415 180.568C139.56 180.568 138.716 180.488 137.891 180.326L138.271 178.396C141.681 179.068 145.697 178.016 149.276 175.507C152.602 173.177 155.264 169.958 157.841 166.844L159.356 168.098C156.697 171.312 153.947 174.636 150.405 177.118C147.171 179.383 143.705 180.568 140.415 180.568Z" fill="white"/>
<path d="M153.384 173.76C151.044 173.582 148.783 172.191 147.336 170.041C145.888 167.891 145.45 165.272 146.166 163.036L148.038 163.635C147.505 165.303 147.852 167.287 148.967 168.943C150.081 170.598 151.789 171.666 153.534 171.8L153.384 173.76Z" fill="white"/>
<path d="M167.056 221.977C165.767 222.468 164.156 221.83 163.552 220.59C162.949 219.35 163.44 217.688 164.622 216.976C163.529 217.673 161.81 217.007 161.05 215.956C160.291 214.906 160.503 213.278 161.507 212.458C160.131 214.153 157.288 214.187 155.479 212.965C153.669 211.744 152.693 209.588 152.28 207.445C152.059 206.293 151.983 205.056 152.466 203.987C152.949 202.918 154.132 202.095 155.275 202.357C154.335 199.996 154.607 196.806 156.389 194.994C158.172 193.183 161.053 192.552 163.429 193.454C165.805 194.355 167.543 196.739 167.675 199.276C168.261 198.109 169.951 197.301 171.137 197.848C172.324 198.395 172.926 199.949 172.419 201.152C172.339 200.547 173.467 199.595 174.069 199.493C174.671 199.39 175.314 199.828 175.439 200.426C174.562 199.528 173.481 198.231 172.55 197.389C171.619 196.547 170.767 195.554 170.399 194.354C170.032 193.154 170.244 191.713 171.179 190.876C172.114 190.039 173.805 190.099 174.476 191.16C173.882 190.168 172.804 188.741 172.645 187.596C172.486 186.45 172.77 185.19 173.62 184.407C174.471 183.625 175.941 183.502 176.758 184.32C175.978 181.622 177.521 178.151 180.127 177.106C182.733 176.06 185.85 176.827 188.002 178.631C190.155 180.434 191.42 183.131 191.941 185.891C192.574 189.243 192.01 193.108 189.415 195.323C191.103 196.157 192.29 197.518 192.984 199.268C193.678 201.018 193.534 203.131 192.419 204.647C191.305 206.164 189.184 206.934 187.416 206.285C188.272 207.647 189.801 209.316 190.31 210.841C190.819 212.366 190.947 214.076 190.33 215.561C189.561 217.414 187.671 218.683 185.681 218.937C183.691 219.191 181.647 218.51 180.039 217.311C179.982 218.226 181.152 219.151 181.429 220.026C181.705 220.901 181.798 221.958 181.188 222.643C180.595 223.31 179.588 223.36 178.696 223.361C177.598 223.362 176.209 223.155 175.919 222.096C176.634 224.386 174.818 226.87 172.436 227.16C170.054 227.45 166.911 224.373 167.056 221.977Z" fill="white" fill-opacity="0.7"/>
<path d="M135.877 230.355L135.82 228.389C142.881 228.181 150.183 227.964 157.116 226.099C164.684 224.064 170.838 220.114 174.443 214.976C180.531 206.299 179.851 194.867 178.532 182.931L180.488 182.716C181.849 195.04 182.534 206.867 176.052 216.105C172.183 221.62 165.639 225.843 157.626 227.998C150.471 229.922 143.053 230.142 135.877 230.355Z" fill="white"/>
<path d="M171.313 212.377C168.763 212.377 166.226 211.686 164.311 210.282C160.265 207.313 158.656 201.377 160.647 196.77L162.452 197.55C160.809 201.351 162.136 206.247 165.475 208.696C168.838 211.163 174.757 210.943 177.892 208.232L179.179 209.72C177.142 211.48 174.219 212.377 171.313 212.377Z" fill="white"/>
<path d="M107.135 225.505C101.977 224.774 96.86 222.788 93.1725 219.108C89.4851 215.428 87.4468 209.894 88.733 204.846C90.0194 199.799 95.0405 195.72 100.22 196.277C96.0508 191.176 98.1783 182.315 104.209 179.663C110.24 177.01 118.209 181.432 119.15 187.952C122.767 184.974 128.781 187.688 130.478 192.054C132.175 196.421 130.705 201.387 128.528 205.535C134.13 210.758 135.642 219.859 132.028 226.613C129.068 232.147 122.537 236.052 116.211 235.849C111.695 235.705 103.576 231.211 107.135 225.505Z" fill="white" fill-opacity="0.7"/>
<path d="M135.808 246.115C133.149 246.005 130.4 245.894 127.734 245.105C124.662 244.198 122.22 242.457 120.856 240.204C119.192 237.453 119.161 234.079 119.135 231.368L118.865 202.56L120.831 202.541L121.101 231.349C121.125 233.949 121.153 236.896 122.539 239.186C123.647 241.018 125.691 242.451 128.292 243.219C130.724 243.939 133.349 244.045 135.889 244.148L135.808 246.115Z" fill="white"/>
<path d="M48.4337 13.4785C51.0119 13.2319 53.6425 12.9882 56.1682 13.5624C58.6936 14.1366 61.1421 15.6792 62.1277 18.0743C63.1132 20.4695 62.1461 23.691 59.728 24.6188C60.7814 23.8089 62.8591 24.7583 63.2702 26.0219C63.6816 27.2856 62.5612 28.7869 61.2327 28.7523C64.2455 28.7944 67.4462 30.2646 69.3187 32.6251C71.1915 34.9856 71.9366 38.2027 71.2925 41.1462C70.8687 43.0817 69.8225 44.9341 68.1782 46.0396C66.5341 47.1452 64.2601 47.3861 62.5533 46.3798C64.0201 48.0515 63.539 51.2518 61.8182 52.6608C60.0975 54.0696 57.2294 53.7345 55.88 51.9666C54.9562 53.351 54.0933 54.975 52.8055 56.029C51.5178 57.0831 49.8503 57.7798 48.2002 57.564C46.4887 57.3403 45.0309 56.1781 43.9558 54.8278C40.7363 50.7839 40.4808 44.6387 43.3536 40.3415C41.3498 40.5083 39.5887 39.8038 38.8075 37.951C38.0263 36.0983 38.567 33.7717 40.0854 32.4536C37.3547 31.5333 35.9262 27.7488 35.9675 24.8676C36.0086 21.9863 37.5887 19.2776 39.7535 17.3758C41.9182 15.4739 45.5652 13.7529 48.4337 13.4785Z" fill="white" fill-opacity="0.7"/>
<path d="M52.5581 26.3828L38.9442 507H57.6147L53.725 26.3828H52.5581Z" fill="white"/>
<path d="M61.2891 85.8275C59.2242 84.9342 57.6615 82.9012 57.4135 80.6549C57.1291 78.0804 58.591 75.4024 60.9102 74.2491C63.3101 73.0557 65.1634 74.2338 67.3293 74.406C65.0587 72.1648 62.4425 70.4639 61.3921 67.2251C60.3562 64.031 60.7566 60.3211 62.7575 57.6243C64.7583 54.9275 68.4137 53.4543 71.6512 54.3457C70.3532 53.5165 69.8803 51.1215 70.9471 50.0108C72.014 48.8998 74.0961 49.0627 74.9771 50.3261C73.2991 46.7455 72.6122 42.0407 74.6452 38.6491C76.6783 35.2576 80.9089 33.1818 84.7555 34.0985C88.6019 35.0153 91.5195 39.1558 90.678 43.0195C91.6217 41.481 94.0398 39.4345 95.8181 39.1259C97.5964 38.8174 99.4508 39.1688 101.092 39.9187C105.077 41.7393 107.797 46.0349 107.738 50.4155C107.68 54.796 104.846 59.0173 100.814 60.7304C101.819 62.414 102.914 64.1385 102.774 66.0945C102.635 68.0507 100.713 69.9816 98.8568 69.3479C100.385 71.0956 99.8657 74.6414 98.6297 76.6065C97.3938 78.5717 94.8065 79.5734 92.5695 78.9532C95.2058 84.8077 89.1787 90.3591 83.925 91.6662C81.4632 92.2787 78.4183 91.2208 77.6266 88.8108C78.8484 92.5965 76.8701 97.14 73.2663 98.8246C68.141 101.22 60.8073 96.8323 60.1136 91.2834C59.8723 89.3525 60.6319 87.2623 62.2239 86.1432C61.9033 86.0642 61.5908 85.9579 61.2891 85.8275Z" fill="white" fill-opacity="0.7"/>
<path d="M52.2072 88.2474C52.0604 88.2474 51.9145 88.2474 51.7684 88.2464L51.7761 86.28C59.2109 86.3482 68.4717 85.6338 74.8475 80.1108C81.5677 74.2883 83.4103 64.8247 84.842 54.8197L86.7892 55.0981C85.3018 65.4864 83.368 75.3301 76.135 81.5972C69.3945 87.4361 59.8704 88.2474 52.2072 88.2474Z" fill="white"/>
<path d="M81.9787 70.4381C76.814 69.7995 72.666 64.6894 73.1038 59.5034L75.0626 59.6686C74.7168 63.7773 78.1284 67.9799 82.2207 68.4869L81.9787 70.4381Z" fill="white"/>
<path d="M31.9686 78.8087C29.9124 79.9853 27.1777 79.8507 25.2471 78.4778C23.3165 77.105 22.2915 74.566 22.7277 72.2375C23.164 69.9091 25.0389 67.9137 27.3355 67.3329C26.1934 66.9192 24.6241 67.1839 23.4243 67.3736C22.2244 67.5634 20.6804 67.2085 20.4112 66.0239C20.2525 65.3253 20.6399 64.5935 21.1951 64.1404C21.7502 63.6874 22.4487 63.4564 23.13 63.2348C21.2242 62.7089 19.9526 61.6136 18.8369 59.9813C17.709 58.331 17.1443 56.2375 17.5875 54.2883C18.0308 52.339 19.584 50.6117 21.5465 50.2319C23.5091 49.8521 25.7316 51.04 26.2707 52.965C25.7492 51.6992 25.7806 49.4336 26.9924 48.7967C28.2043 48.16 29.8679 48.5939 30.6144 49.7415C29.9943 46.2834 32.8718 42.5237 36.3683 42.1801C39.8648 41.8368 43.3135 44.9063 43.3779 48.419C44.4414 48.0125 45.3327 47.4241 46.2283 48.1272C47.1238 48.8302 47.7028 49.8696 48.0668 50.9484C49.2725 54.5212 48.1371 58.7662 45.3088 61.2601C47.3403 61.2398 49.9203 61.6719 50.3765 63.6514C50.8329 65.631 49.7559 67.8569 47.9205 68.7276C49.9829 69.9983 52.0709 72.177 51.6868 74.5687C51.3028 76.9605 49.3806 79.0315 47.024 79.5927C44.6675 80.1538 42.0182 79.171 40.5975 77.209C40.6677 79.4949 39.2818 81.9301 37.0162 82.2417C34.7505 82.5533 32.5181 81.0286 31.9686 78.8087Z" fill="white" fill-opacity="0.7"/>
<path d="M48.8917 72.2162C45.6012 72.2162 42.135 71.0314 38.9011 68.7663C35.3609 66.2851 32.6109 62.961 29.9503 59.7464L31.4654 58.4924C34.0426 61.6071 36.707 64.8267 40.0303 67.1551C43.6088 69.6621 47.6204 70.7125 51.0349 70.0443L51.4142 71.9742C50.5903 72.1366 49.7463 72.2162 48.8917 72.2162Z" fill="white"/>
<path d="M35.9216 65.4075L35.7719 63.4469C37.5175 63.3143 39.2257 62.2466 40.3394 60.5903C41.4542 58.935 41.8018 56.9513 41.2679 55.2834L43.1403 54.6842C43.8556 56.9196 43.4187 59.539 41.9708 61.6887C40.5238 63.8396 38.2616 65.229 35.9216 65.4075Z" fill="white"/>
<path d="M-1.48137 117.531C-2.22659 120.465 -4.00923 123.271 -6.73946 124.579C-9.4697 125.887 -13.1733 125.302 -14.8929 122.811C-16.6127 120.319 -15.3945 116.175 -12.4426 115.504C-16.338 116.813 -21.1735 116.493 -24.7649 114.496C-28.3564 112.498 -30.7544 108.17 -29.7829 104.177C-28.8115 100.183 -23.9809 97.3783 -20.2622 99.1278C-24.9268 96.8612 -27.2743 90.5527 -24.7271 86.0352C-22.18 81.5177 -15.5949 79.896 -11.2413 82.7143C-10.7926 78.914 -9.78882 75.7677 -6.77377 73.411C-3.75887 71.0544 0.531122 70.2446 4.03768 71.7767C7.54437 73.309 9.92188 77.3275 9.15378 81.0763C10.9919 77.9819 14.7684 76.1483 18.1208 77.4583C21.4732 78.7684 23.7433 82.2274 24.0634 85.8125C24.3835 89.3974 22.9234 93.008 20.5445 95.7091C22.4757 95.2919 24.6262 95.4292 25.8885 96.9489C27.1507 98.4688 27.6937 100.484 27.7671 102.458C28.0236 109.372 22.1321 115.939 15.2312 116.433C16.4251 119.703 15.2019 123.648 12.509 125.854C9.81615 128.06 5.71069 128.344 2.73986 126.53C-0.231113 124.716 -2.21376 120.934 -1.48137 117.531Z" fill="white" fill-opacity="0.7"/>
<path d="M30.8691 128.317C25.9328 128.317 20.9725 127.554 16.4098 125.391C10.4249 122.554 5.23893 117.275 1.80922 110.528C-1.0358 104.93 -2.77283 98.3458 -3.50061 90.3993L-1.54181 90.2206C-0.83802 97.9137 0.831779 104.265 3.56257 109.636C6.79645 115.998 11.6579 120.962 17.2528 123.615C26.8172 128.149 38.156 126.223 49.9067 123.662L50.3252 125.582C44.6698 126.816 37.7939 128.317 30.8691 128.317Z" fill="white"/>
<path d="M3.69516 109.117C2.90782 109.117 2.09258 108.978 1.25433 108.672L1.93023 106.824C5.67111 108.192 8.98477 104.85 10.6862 101.573C12.6574 97.7792 12.6488 93.154 12.6421 89.0742L14.6086 89.0703C14.6162 93.3768 14.6249 98.2573 12.4318 102.479C10.7122 105.789 7.54636 109.117 3.69516 109.117Z" fill="white"/>
<path d="M82.9951 129.14C81.7065 129.63 80.0947 128.992 79.4912 127.752C78.8878 126.512 79.3798 124.85 80.5609 124.138C79.4679 124.835 77.7495 124.169 76.9897 123.119C76.23 122.068 76.4426 120.44 77.4465 119.62C76.0702 121.315 73.2275 121.349 71.4178 120.127C69.6081 118.906 68.6323 116.751 68.2196 114.607C67.998 113.455 67.9223 112.218 68.405 111.149C68.8879 110.08 70.071 109.257 71.2143 109.519C70.2741 107.158 70.5465 103.968 72.3287 102.157C74.1109 100.345 76.9924 99.7144 79.3683 100.616C81.7445 101.517 83.4823 103.901 83.6143 106.439C84.2003 105.271 85.8899 104.463 87.0763 105.01C88.2628 105.557 88.8654 107.111 88.358 108.314C88.2782 107.709 89.4065 106.757 90.0084 106.655C90.6102 106.552 91.2531 106.99 91.3782 107.588C90.5013 106.69 89.4198 105.393 88.4892 104.551C87.5585 103.709 86.7064 102.717 86.3388 101.516C85.9711 100.316 86.1835 98.8753 87.1186 98.0381C88.0538 97.2009 89.7446 97.2608 90.4149 98.3219C89.8216 97.3298 88.7429 95.9027 88.5841 94.7576C88.4252 93.6127 88.7087 92.3519 89.5597 91.5693C90.4105 90.7869 91.8803 90.6641 92.6976 91.4816C91.9171 88.7839 93.4597 85.3134 96.0662 84.2678C98.6727 83.2222 101.789 83.989 103.942 85.7927C106.094 87.5962 107.359 90.2931 107.88 93.0528C108.513 96.405 107.95 100.27 105.355 102.485C107.042 103.319 108.229 104.68 108.923 106.43C109.617 108.18 109.473 110.293 108.358 111.809C107.244 113.326 105.123 114.096 103.356 113.447C104.211 114.809 105.74 116.478 106.249 118.003C106.758 119.528 106.886 121.238 106.27 122.723C105.5 124.576 103.61 125.845 101.62 126.099C99.63 126.354 97.5862 125.672 95.9781 124.473C95.9213 125.388 97.0916 126.314 97.3679 127.188C97.6441 128.063 97.737 129.12 97.1273 129.805C96.5343 130.472 95.5273 130.522 94.6348 130.523C93.5371 130.524 92.1481 130.317 91.8581 129.258C92.5738 131.548 90.7569 134.032 88.3751 134.322C85.9933 134.612 82.8499 131.535 82.9951 129.14Z" fill="white" fill-opacity="0.7"/>
<path d="M51.8166 137.517L51.759 135.551C58.8201 135.342 66.1223 135.125 73.0548 133.261C80.6239 131.225 86.7777 127.275 90.3823 122.138C96.4698 113.461 95.79 102.029 94.4717 90.0929L96.4266 89.8779C97.7881 102.202 98.4727 114.029 91.9915 123.267C88.1229 128.782 81.5793 133.005 73.5656 135.16C66.4103 137.084 58.9919 137.304 51.8166 137.517Z" fill="white"/>
<path d="M87.2529 119.539C84.7026 119.539 82.1659 118.848 80.2513 117.444C76.2041 114.475 74.5939 108.54 76.5863 103.932L78.3914 104.712C76.7485 108.513 78.0764 113.409 81.4151 115.857C84.7775 118.325 90.6942 118.106 93.8312 115.394L95.1178 116.882C93.0802 118.642 90.1585 119.539 87.2529 119.539Z" fill="white"/>
<path d="M19.544 204.666C14.3865 203.935 9.26939 201.949 5.58207 198.269C1.89462 194.59 -0.143675 189.056 1.14257 184.008C2.42895 178.96 7.45007 174.882 12.6294 175.439C8.46029 170.338 10.5879 161.476 16.6185 158.824C22.6491 156.172 30.6182 160.593 31.56 167.113C35.1763 164.135 41.1908 166.849 42.8877 171.216C44.5849 175.582 43.115 180.548 40.9377 184.696C46.5399 189.92 48.0511 199.02 44.4379 205.774C41.4771 211.309 34.9467 215.213 28.6201 215.011C24.105 214.866 15.986 210.372 19.544 204.666Z" fill="white" fill-opacity="0.7"/>
<path d="M48.2177 225.275C45.557 225.166 42.8061 225.052 40.1445 224.266C37.0709 223.358 34.6283 221.618 33.2657 219.366C31.6018 216.616 31.5701 213.241 31.5442 210.529L31.2743 181.721L33.2408 181.702L33.5106 210.51C33.5346 213.111 33.5624 216.059 34.9479 218.348C36.0561 220.179 38.0993 221.611 40.7014 222.38C43.1297 223.097 45.7577 223.206 48.2984 223.31L48.2177 225.275Z" fill="white"/>
<path d="M66.6319 272.326C61.1476 267.522 59.4917 258.751 63.1495 252.443C66.8071 246.136 75.5504 243.25 82.1058 246.442C88.6612 249.634 91.7371 258.627 88.2273 265.018C91.0537 263.453 94.7528 263.947 97.3768 265.832C100.001 267.717 101.603 270.801 102.158 273.984C103.067 279.203 101.218 284.822 97.3868 288.48C93.5561 292.138 87.8573 293.726 82.687 292.577C90.5117 294.316 81.5258 304.231 77.139 304.666C72.493 305.127 66.4694 303.322 63.2435 299.89C59.8873 296.32 58.7728 290.615 58.0708 285.943C57.4846 282.043 58.6165 265.885 66.6319 272.326Z" fill="white" fill-opacity="0.7"/>
<path d="M58.7634 310.443C56.987 310.443 55.2626 310.119 53.5861 309.802L53.9509 307.87C55.8232 308.223 57.761 308.598 59.641 308.444C60.7912 308.358 62.9238 307.975 64.295 306.381C65.6326 304.826 65.8956 302.499 66.0492 300.246C66.4871 293.847 66.5725 287.353 66.3047 280.941L68.2692 280.86C68.5409 287.341 68.4536 293.911 68.0119 300.38C67.8342 302.961 67.5173 305.652 65.7851 307.664C64.4275 309.243 62.2978 310.216 59.7898 310.407C59.4461 310.432 59.1033 310.443 58.7634 310.443Z" fill="white"/>
<path d="M233.108 183.221C230.496 182.091 228.519 179.519 228.205 176.677C227.845 173.421 229.695 170.033 232.629 168.574C235.665 167.064 238.009 168.555 240.749 168.772C237.877 165.937 234.567 163.785 233.238 159.688C231.928 155.648 232.435 150.955 234.966 147.543C237.497 144.131 242.121 142.268 246.217 143.395C244.575 142.346 243.976 139.317 245.326 137.911C246.675 136.506 249.309 136.712 250.424 138.31C248.301 133.781 247.432 127.829 250.004 123.539C252.576 119.248 257.928 116.622 262.794 117.782C267.66 118.942 271.351 124.18 270.286 129.067C271.48 127.121 274.539 124.532 276.789 124.142C279.038 123.751 281.384 124.196 283.461 125.145C288.502 127.448 291.942 132.882 291.868 138.423C291.794 143.965 288.209 149.305 283.108 151.472C284.38 153.602 285.765 155.784 285.589 158.258C285.412 160.733 282.98 163.175 280.633 162.374C282.565 164.585 281.909 169.07 280.345 171.556C278.782 174.042 275.509 175.309 272.679 174.525C276.014 181.931 268.389 188.954 261.743 190.607C258.629 191.382 254.777 190.044 253.776 186.995C255.321 191.784 252.819 197.532 248.26 199.663C241.776 202.694 232.499 197.143 231.621 190.123C231.316 187.68 232.277 185.036 234.291 183.62C233.885 183.52 233.49 183.386 233.108 183.221Z" fill="white" fill-opacity="0.7"/>
<path d="M221.607 186.022C221.426 186.022 221.246 186.022 221.066 186.021L221.073 184.054C230.424 184.098 242.3 183.228 250.431 176.186C259.001 168.762 261.342 156.74 263.161 144.032L265.108 144.311C263.236 157.402 260.801 169.803 251.717 177.672C243.254 185.004 231.259 186.022 221.607 186.022Z" fill="white"/>
<path d="M259.313 163.494C252.911 162.702 247.771 156.37 248.314 149.942L250.272 150.107C249.815 155.53 254.153 160.875 259.554 161.543L259.313 163.494Z" fill="white"/>
<path d="M215.949 260.352C217.564 259.653 218.785 258.064 218.979 256.307C219.202 254.294 218.059 252.201 216.245 251.299C214.369 250.366 212.92 251.287 211.226 251.422C213.002 249.669 215.047 248.339 215.869 245.807C216.678 243.31 216.365 240.409 214.801 238.301C213.237 236.192 210.379 235.04 207.847 235.737C208.862 235.089 209.232 233.217 208.398 232.348C207.564 231.479 205.936 231.607 205.247 232.595C206.559 229.795 207.096 226.117 205.506 223.465C203.917 220.813 200.609 219.19 197.602 219.907C194.594 220.624 192.313 223.861 192.971 226.882C192.233 225.679 190.343 224.079 188.952 223.838C187.562 223.597 186.112 223.871 184.829 224.458C181.713 225.881 179.587 229.24 179.632 232.665C179.678 236.09 181.894 239.39 185.047 240.729C184.261 242.046 183.404 243.394 183.514 244.923C183.623 246.453 185.126 247.962 186.577 247.467C185.382 248.833 185.788 251.606 186.754 253.142C187.72 254.679 189.743 255.462 191.492 254.977C189.431 259.554 194.144 263.895 198.251 264.917C200.176 265.395 202.556 264.568 203.175 262.684C202.22 265.644 203.767 269.196 206.585 270.513C210.592 272.387 216.326 268.956 216.868 264.617C217.057 263.108 216.463 261.473 215.218 260.598C215.469 260.536 215.713 260.454 215.949 260.352Z" fill="white" fill-opacity="0.7"/>
<path d="M223.057 262.457C217.026 262.457 209.527 261.818 204.202 257.207C198.491 252.258 196.969 244.521 195.799 236.356L197.747 236.078C198.86 243.858 200.291 251.215 205.49 255.721C210.419 259.989 217.619 260.481 223.386 260.491L223.394 262.457H223.057Z" fill="white"/>
<path d="M199.799 248.533L199.557 246.582C202.65 246.199 205.228 243.023 204.966 239.918L206.925 239.753C207.277 243.918 203.947 248.02 199.799 248.533Z" fill="white"/>
<path d="M196.709 60.7813C194.108 62.2698 190.648 62.0995 188.206 60.3629C185.764 58.6262 184.467 55.4143 185.019 52.4687C185.571 49.5233 187.943 46.9988 190.848 46.2642C189.403 45.7408 187.418 46.0757 185.9 46.3158C184.382 46.5558 182.429 46.1067 182.089 44.6083C181.888 43.7244 182.378 42.7987 183.08 42.2256C183.782 41.6525 184.666 41.3603 185.528 41.0798C183.117 40.4146 181.508 39.0289 180.097 36.9641C178.67 34.8764 177.956 32.228 178.516 29.7621C179.077 27.2963 181.042 25.1111 183.525 24.6308C186.007 24.1503 188.819 25.653 189.501 28.0881C188.841 26.4869 188.881 23.6207 190.414 22.8152C191.947 22.0098 194.052 22.5587 194.996 24.0104C194.211 19.6356 197.852 14.8794 202.275 14.445C206.698 14.0106 211.061 17.8936 211.142 22.3374C212.488 21.823 213.615 21.0788 214.748 21.9682C215.881 22.8575 216.613 24.1725 217.074 25.5371C218.599 30.0568 217.163 35.4269 213.585 38.5818C216.155 38.556 219.419 39.1026 219.996 41.6069C220.573 44.1112 219.211 46.9269 216.889 48.0285C219.498 49.636 222.139 52.392 221.653 55.4177C221.167 58.4434 218.736 61.0633 215.755 61.7731C212.774 62.4829 209.422 61.2399 207.625 58.7578C207.714 61.6494 205.961 64.7302 203.094 65.1243C200.228 65.5185 197.404 63.5897 196.709 60.7813Z" fill="white" fill-opacity="0.7"/>
<path d="M218.117 52.1811C214.008 52.1811 209.675 50.6986 205.629 47.8641C201.179 44.7454 197.711 40.5543 194.356 36.5004L195.871 35.2464C199.143 39.1994 202.526 43.2879 206.758 46.253C211.344 49.4666 216.501 50.8205 220.879 49.9496L221.26 51.8796C220.233 52.0812 219.182 52.1811 218.117 52.1811Z" fill="white"/>
<path d="M201.69 43.5692L201.54 41.6086C203.828 41.4339 206.061 40.0406 207.515 37.8811C208.969 35.7208 209.42 33.1272 208.721 30.9419L210.594 30.3428C211.474 33.0956 210.933 36.3247 209.146 38.9796C207.358 41.6336 204.572 43.3494 201.69 43.5692Z" fill="white"/>
<path d="M196.709 121.059C194.108 122.548 190.648 122.378 188.206 120.641C185.764 118.904 184.467 115.692 185.019 112.747C185.571 109.801 187.943 107.277 190.848 106.542C189.403 106.019 187.418 106.354 185.9 106.594C184.382 106.834 182.429 106.385 182.089 104.886C181.888 104.003 182.378 103.077 183.08 102.504C183.782 101.931 184.666 101.638 185.528 101.358C183.117 100.693 181.508 99.307 180.097 97.2422C178.67 95.1545 177.956 92.506 178.516 90.0402C179.077 87.5744 181.042 85.3893 183.525 84.9088C186.007 84.4284 188.819 85.9311 189.501 88.3662C188.841 86.7651 188.881 83.8988 190.414 83.0934C191.947 82.2878 194.052 82.8367 194.996 84.2885C194.211 79.9137 197.852 75.1575 202.275 74.7232C206.698 74.2887 211.061 78.1717 211.142 82.6154C212.488 82.1012 213.615 81.3569 214.748 82.2462C215.881 83.1356 216.613 84.4505 217.074 85.8152C218.599 90.3349 217.163 95.705 213.585 98.86C216.155 98.8342 219.419 99.3808 219.996 101.885C220.573 104.389 219.211 107.205 216.889 108.307C219.498 109.914 222.139 112.67 221.653 115.696C221.167 118.721 218.736 121.341 215.755 122.051C212.774 122.761 209.422 121.518 207.625 119.036C207.714 121.928 205.961 125.008 203.094 125.402C200.228 125.797 197.404 123.868 196.709 121.059Z" fill="white" fill-opacity="0.7"/>
<path d="M220.811 28.3697C218.21 29.8581 214.75 29.6878 212.308 27.9512C209.866 26.2144 208.569 23.0026 209.121 20.0571C209.673 17.1115 212.045 14.587 214.95 13.8524C213.505 13.3291 211.52 13.664 210.002 13.904C208.484 14.144 206.531 13.6951 206.191 12.1966C205.99 11.3127 206.48 10.387 207.182 9.81389C207.885 9.24079 208.768 8.94858 209.63 8.6681C207.219 8.0028 205.611 6.61711 204.199 4.55245C202.772 2.46478 202.058 -0.18372 202.618 -2.64951C203.179 -5.11544 205.144 -7.3006 207.627 -7.78095C210.11 -8.26145 212.921 -6.7586 213.603 -4.32363C212.943 -5.92481 212.983 -8.79104 214.516 -9.59651C216.049 -10.402 218.154 -9.853 219.098 -8.40134C218.314 -12.776 221.954 -17.5322 226.377 -17.9667C230.8 -18.4012 235.163 -14.5182 235.244 -10.0743C236.59 -10.5886 237.717 -11.3328 238.85 -10.4435C239.983 -9.55424 240.716 -8.23927 241.176 -6.87464C242.701 -2.35494 241.265 3.01529 237.687 6.17009C240.257 6.14443 243.521 6.69103 244.098 9.19518C244.675 11.6995 243.313 14.5152 240.991 15.6169C243.6 17.2242 246.241 19.9804 245.755 23.006C245.27 26.0317 242.838 28.6517 239.857 29.3614C236.876 30.0712 233.524 28.8282 231.727 26.3461C231.816 29.2378 230.063 32.3186 227.197 32.7127C224.331 33.1069 221.506 31.1779 220.811 28.3697Z" fill="white" fill-opacity="0.7"/>
<path d="M218.118 112.459C214.009 112.459 209.676 110.976 205.629 108.142C201.183 105.027 197.713 100.834 194.356 96.7787L195.871 95.5247C199.145 99.4797 202.528 103.568 206.757 106.53C211.343 109.743 216.491 111.091 220.879 110.228L221.26 112.158C220.233 112.36 219.183 112.459 218.118 112.459Z" fill="white"/>
<path d="M201.69 103.848L201.54 101.887C203.828 101.712 206.061 100.318 207.516 98.1584C208.969 95.9981 209.42 93.4045 208.721 91.2202L210.594 90.621C211.474 93.3739 210.933 96.602 209.147 99.256C207.359 101.911 204.572 103.628 201.69 103.848Z" fill="white"/>
<path d="M246.723 77.6636C249.324 79.1521 252.784 78.9818 255.226 77.2452C257.668 75.5085 258.965 72.2966 258.413 69.3512C257.861 66.4056 255.49 63.8811 252.584 63.1465C254.029 62.6231 256.014 62.958 257.532 63.1981C259.05 63.4381 261.003 62.9891 261.344 61.4906C261.545 60.6068 261.054 59.681 260.352 59.1079C259.65 58.5348 258.766 58.2426 257.904 57.9622C260.315 57.2969 261.924 55.9112 263.335 53.8465C264.762 51.7587 265.477 49.1103 264.916 46.6444C264.355 44.1786 262.39 41.9935 259.908 41.5131C257.425 41.0326 254.613 42.5353 253.931 44.9704C254.591 43.3692 254.551 40.503 253.018 39.6975C251.485 38.8921 249.381 39.4411 248.436 40.8927C249.221 36.5181 245.581 31.7618 241.157 31.3273C236.734 30.8929 232.371 34.7759 232.29 39.2197C230.945 38.7053 229.817 37.9612 228.684 38.8505C227.551 39.7398 226.819 41.0548 226.358 42.4194C224.833 46.9391 226.269 52.3092 229.847 55.4641C227.278 55.4383 224.014 55.9849 223.436 58.4892C222.859 60.9935 224.222 63.8092 226.543 64.911C223.934 66.5183 221.293 69.2745 221.779 72.3001C222.265 75.3257 224.697 77.9458 227.678 78.6554C230.659 79.3652 234.01 78.1222 235.807 75.6401C235.719 78.5319 237.472 81.6125 240.338 82.0068C243.204 82.4009 246.028 80.472 246.723 77.6636Z" fill="white" fill-opacity="0.7"/>
<path d="M225.314 69.0639C224.25 69.0639 223.199 68.9641 222.173 68.7625L222.553 66.8325C226.943 67.6937 232.089 66.3477 236.674 63.1348C240.906 60.1708 244.289 56.0832 247.561 52.1292L249.076 53.3833C245.72 57.4371 242.251 61.6293 237.803 64.7461C233.756 67.5805 229.423 69.0639 225.314 69.0639Z" fill="white"/>
<path d="M241.742 60.4512C238.861 60.2313 236.074 58.5154 234.286 55.8615C232.5 53.2066 231.958 49.9776 232.838 47.2246L234.711 47.8238C234.013 50.0092 234.463 52.6026 235.918 54.7631C237.371 56.9225 239.605 58.3157 241.892 58.4905L241.742 60.4512Z" fill="white"/>
<path d="M200.924 164.86C201.932 165.244 203.192 164.745 203.664 163.775C204.136 162.806 203.751 161.506 202.828 160.95C203.682 161.495 205.026 160.974 205.62 160.153C206.214 159.332 206.048 158.058 205.263 157.417C206.339 158.742 208.561 158.769 209.976 157.814C211.391 156.859 212.154 155.174 212.477 153.498C212.65 152.597 212.709 151.63 212.332 150.794C211.954 149.959 211.029 149.315 210.135 149.52C210.87 147.674 210.657 145.18 209.264 143.763C207.871 142.347 205.618 141.854 203.76 142.559C201.902 143.264 200.543 145.127 200.44 147.111C199.982 146.198 198.661 145.566 197.733 145.994C196.806 146.422 196.335 147.637 196.731 148.578C196.794 148.105 195.912 147.361 195.441 147.28C194.971 147.2 194.468 147.543 194.37 148.01C195.056 147.308 195.901 146.294 196.629 145.636C197.357 144.977 198.023 144.201 198.31 143.263C198.598 142.325 198.432 141.198 197.7 140.544C196.969 139.889 195.647 139.936 195.123 140.765C195.587 139.99 196.43 138.874 196.555 137.979C196.679 137.083 196.457 136.098 195.792 135.486C195.127 134.874 193.978 134.778 193.338 135.417C193.949 133.308 192.743 130.595 190.705 129.777C188.667 128.959 186.23 129.559 184.547 130.969C182.864 132.379 181.875 134.488 181.468 136.646C180.973 139.266 181.414 142.288 183.443 144.02C182.123 144.673 181.195 145.736 180.652 147.105C180.11 148.473 180.222 150.125 181.094 151.311C181.966 152.497 183.624 153.098 185.006 152.591C184.337 153.656 183.141 154.961 182.743 156.153C182.345 157.345 182.245 158.683 182.727 159.843C183.329 161.292 184.806 162.285 186.362 162.483C187.918 162.682 189.516 162.149 190.774 161.211C190.818 161.927 189.903 162.651 189.687 163.335C189.471 164.019 189.398 164.845 189.875 165.381C190.339 165.902 191.126 165.941 191.824 165.942C192.682 165.942 193.768 165.781 193.995 164.953C193.435 166.744 194.856 168.685 196.718 168.912C198.58 169.139 201.038 166.733 200.924 164.86Z" fill="white" fill-opacity="0.7"/>
<path d="M225.295 171.625C219.674 171.459 213.863 171.287 208.241 169.775C203.775 168.572 197.628 165.969 193.715 160.392C188.606 153.11 189.141 143.818 190.21 134.139L192.165 134.354C191.139 143.645 190.609 152.541 195.324 159.263C198.113 163.238 202.882 166.297 208.752 167.875C214.151 169.328 219.846 169.496 225.353 169.658L225.295 171.625Z" fill="white"/>
<path d="M197.597 157.565C195.272 157.565 192.935 156.847 191.306 155.439L192.592 153.951C194.975 156.011 199.474 156.179 202.033 154.303C204.566 152.445 205.573 148.73 204.327 145.847L206.132 145.067C207.727 148.757 206.437 153.51 203.197 155.889C201.665 157.012 199.636 157.565 197.597 157.565Z" fill="white"/>
<path d="M220.69 0.875732L215.906 505.479H232.335L222.167 0.875732H220.69Z" fill="white"/>
<path d="M337.629 59.8297C335.114 59.2112 332.551 58.5722 330.356 57.1961C328.162 55.8201 326.361 53.5554 326.221 50.9693C326.082 48.383 328.059 45.6617 330.648 45.5845C329.386 46.001 327.739 44.4188 327.768 43.0901C327.797 41.7616 329.35 40.7146 330.593 41.186C327.763 40.1513 325.227 37.7065 324.239 34.86C323.251 32.0134 323.61 28.7309 325.19 26.1652C326.23 24.4781 327.829 23.0753 329.746 22.5748C331.663 22.0742 333.889 22.5978 335.168 24.1114C334.335 22.049 335.846 19.1872 337.936 18.4257C340.025 17.664 342.622 18.9277 343.312 21.0418C344.641 20.0403 345.992 18.7925 347.555 18.2229C349.119 17.6533 350.923 17.5463 352.409 18.2949C353.951 19.0713 354.943 20.6498 355.512 22.2794C357.215 27.1597 355.427 33.0444 351.296 36.1518C353.242 36.6561 354.672 37.9028 354.797 39.9094C354.923 41.9162 353.644 43.9336 351.776 44.6764C354.049 46.4469 354.148 50.4909 353.157 53.1968C352.167 55.9026 349.781 57.9376 347.109 59.0178C344.438 60.0979 340.427 60.518 337.629 59.8297Z" fill="white" fill-opacity="0.7"/>
<path d="M338.214 20.2302L324.6 500.847H343.271L339.381 20.2302H338.214Z" fill="white"/>
<path d="M346.945 79.675C344.88 78.7818 343.318 76.7486 343.07 74.5024C342.785 71.9278 344.247 69.2499 346.566 68.0965C348.966 66.9032 350.82 68.0813 352.985 68.2534C350.715 66.0122 348.099 64.3113 347.048 61.0727C346.012 57.8784 346.413 54.1685 348.414 51.4718C350.414 48.775 354.07 47.3017 357.307 48.1931C356.009 47.3639 355.536 44.9691 356.603 43.8582C357.67 42.7473 359.752 42.9102 360.633 44.1735C358.955 40.5929 358.268 35.8881 360.301 32.4967C362.334 29.105 366.565 27.0292 370.412 27.946C374.258 28.8628 377.176 33.0032 376.334 36.867C377.278 35.3284 379.696 33.2819 381.474 32.9734C383.253 32.6649 385.107 33.0162 386.749 33.7663C390.733 35.5867 393.453 39.8823 393.394 44.263C393.336 48.6436 390.502 52.8648 386.47 54.5779C387.475 56.2616 388.57 57.986 388.431 59.942C388.291 61.8981 386.369 63.829 384.513 63.1954C386.041 64.943 385.522 68.489 384.286 70.4541C383.05 72.4192 380.463 73.4209 378.226 72.8006C380.862 78.6551 374.835 84.2067 369.581 85.5137C367.119 86.1261 364.074 85.0684 363.283 82.6582C364.505 86.444 362.526 90.9874 358.922 92.672C353.797 95.0679 346.463 90.6797 345.77 85.131C345.528 83.1999 346.288 81.1097 347.88 79.9906C347.559 79.9117 347.247 79.8055 346.945 79.675Z" fill="white" fill-opacity="0.7"/>
<path d="M337.852 82.0956C337.71 82.0956 337.567 82.0956 337.425 82.0946L337.433 80.1281C344.75 80.1637 354.129 79.479 360.504 73.958C367.225 68.1345 369.067 58.6719 370.498 48.6677L372.445 48.9463C370.959 59.3334 369.027 69.1763 361.791 75.4444C355.047 81.2852 345.518 82.0956 337.852 82.0956Z" fill="white"/>
<path d="M367.635 64.2851C362.471 63.6466 358.323 58.5366 358.761 53.3506L360.719 53.5158C360.374 57.6245 363.784 61.8281 367.877 62.3341L367.635 64.2851Z" fill="white"/>
<path d="M317.625 72.6561C315.569 73.8327 312.834 73.6981 310.903 72.3253C308.973 70.9524 307.948 68.4135 308.384 66.0851C308.82 63.7567 310.695 61.7611 312.992 61.1803C311.849 60.7667 310.28 61.0314 309.08 61.2211C307.88 61.4109 306.336 61.0559 306.067 59.8714C305.908 59.1727 306.296 58.441 306.851 57.9879C307.406 57.5349 308.105 57.304 308.786 57.0823C306.88 56.5563 305.609 55.461 304.493 53.8289C303.365 52.1786 302.8 50.0849 303.243 48.1357C303.687 46.1866 305.24 44.4592 307.202 44.0794C309.165 43.6996 311.388 44.8875 311.927 46.8124C311.405 45.5467 311.437 43.281 312.648 42.6443C313.86 42.0075 315.524 42.4415 316.27 43.589C315.65 40.1308 318.528 36.3711 322.024 36.0277C325.521 35.6843 328.97 38.7538 329.034 42.2665C330.097 41.8599 330.989 41.2716 331.884 41.9747C332.78 42.6777 333.359 43.7172 333.723 44.7959C334.929 48.3687 333.793 52.6138 330.965 55.1076C332.996 55.0872 335.576 55.5193 336.033 57.4989C336.489 59.4785 335.412 61.7044 333.577 62.5751C335.639 63.8459 337.727 66.0245 337.343 68.4162C336.959 70.8079 335.036 72.879 332.68 73.4401C330.323 74.0012 327.674 73.0186 326.253 71.0565C326.324 73.3423 324.938 75.7776 322.672 76.0892C320.407 76.4008 318.174 74.876 317.625 72.6561Z" fill="white" fill-opacity="0.7"/>
<path d="M334.547 66.0634C331.257 66.0634 327.791 64.8786 324.557 62.6135C321.012 60.1296 318.264 56.8063 315.606 53.5936L317.123 52.3396C319.697 55.4524 322.358 58.6719 325.686 61.0023C329.266 63.5094 333.273 64.5674 336.692 63.8915L337.072 65.8214C336.246 65.9838 335.403 66.0634 334.547 66.0634Z" fill="white"/>
<path d="M321.578 59.2557L321.429 57.295C323.174 57.1615 324.882 56.0938 325.995 54.4385C327.109 52.7831 327.457 50.7985 326.923 49.1307L328.797 48.5315C329.512 50.7677 329.074 53.3862 327.626 55.5369C326.18 57.6868 323.918 59.0771 321.578 59.2557Z" fill="white"/>
<path d="M284.175 111.378C283.429 114.313 281.647 117.118 278.917 118.426C276.186 119.734 272.483 119.15 270.763 116.658C269.043 114.167 270.262 110.022 273.214 109.351C269.318 110.661 264.483 110.341 260.891 108.343C257.3 106.346 254.902 102.017 255.873 98.0241C256.845 94.0311 261.675 91.2258 265.394 92.9752C260.729 90.7086 258.382 84.4003 260.929 79.8827C263.476 75.3652 270.061 73.7436 274.415 76.5617C274.863 72.7615 275.867 69.6152 278.882 67.2586C281.897 64.9019 286.187 64.0921 289.694 65.6244C293.2 67.1565 295.578 71.1751 294.81 74.9239C296.648 71.8293 300.424 69.9958 303.777 71.3057C307.129 72.6158 309.399 76.0748 309.719 79.6599C310.04 83.2449 308.579 86.8555 306.201 89.5565C308.132 89.1394 310.282 89.2766 311.545 90.7963C312.807 92.3162 313.35 94.3311 313.423 96.3054C313.68 103.219 307.788 109.787 300.887 110.28C302.081 113.55 300.858 117.495 298.165 119.701C295.472 121.907 291.367 122.191 288.396 120.377C285.425 118.563 283.442 114.782 284.175 111.378Z" fill="white" fill-opacity="0.7"/>
<path d="M316.526 122.165C311.591 122.165 306.63 121.403 302.068 119.239C296.082 116.402 290.895 111.122 287.467 104.375C284.621 98.7778 282.885 92.1947 282.155 84.2474L284.114 84.0677C284.819 91.7617 286.49 98.1133 289.218 103.484C292.452 109.846 297.315 114.81 302.909 117.463C312.478 121.997 323.812 120.071 335.563 117.51L335.981 119.43C330.326 120.665 323.451 122.165 316.526 122.165Z" fill="white"/>
<path d="M289.353 102.964C288.564 102.964 287.749 102.825 286.91 102.519L287.586 100.671C291.321 102.039 294.64 98.6981 296.343 95.42C298.313 91.6283 298.306 87.0021 298.298 82.9213L300.264 82.9175C300.272 87.225 300.28 92.1065 298.087 96.3264C296.37 99.6352 293.203 102.964 289.353 102.964Z" fill="white"/>
<path d="M368.651 122.987C367.363 123.478 365.751 122.839 365.147 121.6C364.544 120.36 365.036 118.697 366.217 117.986C365.124 118.683 363.406 118.016 362.646 116.966C361.886 115.916 362.099 114.287 363.103 113.467C361.726 115.162 358.884 115.196 357.074 113.975C355.264 112.753 354.289 110.598 353.876 108.454C353.654 107.302 353.578 106.066 354.061 104.997C354.544 103.928 355.727 103.105 356.87 103.366C355.93 101.005 356.203 97.8156 357.985 96.004C359.767 94.1925 362.648 93.5619 365.025 94.4633C367.401 95.3649 369.138 97.7481 369.27 100.286C369.856 99.1183 371.546 98.3102 372.733 98.8572C373.919 99.4042 374.521 100.958 374.014 102.162C373.934 101.557 375.063 100.605 375.664 100.502C376.266 100.4 376.909 100.838 377.034 101.435C376.157 100.537 375.076 99.2408 374.145 98.3986C373.215 97.5565 372.362 96.5641 371.995 95.364C371.627 94.1639 371.84 92.7228 372.775 91.8857C373.71 91.0484 375.401 91.1082 376.071 92.1695C375.478 91.1774 374.399 89.7502 374.24 88.6052C374.081 87.4601 374.365 86.1994 375.216 85.4169C376.067 84.6343 377.536 84.5116 378.354 85.3291C377.573 82.6313 379.116 79.1609 381.722 78.1152C384.329 77.0696 387.445 77.8366 389.598 79.6401C391.751 81.4437 393.015 84.1406 393.536 86.9002C394.169 90.2524 393.606 94.1176 391.011 96.3323C392.698 97.1668 393.886 98.5275 394.579 100.277C395.273 102.027 395.129 104.14 394.015 105.657C392.9 107.174 390.779 107.943 389.012 107.295C389.867 108.656 391.396 110.326 391.905 111.851C392.414 113.376 392.542 115.086 391.926 116.57C391.156 118.423 389.266 119.693 387.276 119.947C385.286 120.201 383.242 119.52 381.634 118.32C381.577 119.236 382.748 120.161 383.024 121.036C383.3 121.911 383.393 122.967 382.784 123.653C382.19 124.32 381.183 124.369 380.291 124.37C379.193 124.371 377.804 124.165 377.514 123.106C378.23 125.396 376.413 127.879 374.031 128.169C371.649 128.459 368.506 125.382 368.651 122.987Z" fill="white" fill-opacity="0.7"/>
<path d="M337.473 131.365L337.416 129.398C344.473 129.191 351.77 128.976 358.711 127.109C366.281 125.072 372.435 121.122 376.038 115.985C382.124 107.312 381.446 95.878 380.128 83.9402L382.083 83.7251C383.443 96.0508 384.128 107.88 377.647 117.114C372.691 124.181 364.892 127.482 359.221 129.008C352.058 130.934 344.644 131.152 337.473 131.365Z" fill="white"/>
<path d="M372.908 113.387C370.358 113.387 367.821 112.697 365.906 111.292C361.86 108.321 360.251 102.386 362.242 97.7802L364.047 98.5598C362.403 102.36 363.732 107.256 367.07 109.706C370.434 112.173 376.353 111.953 379.487 109.242L380.774 110.73C378.738 112.49 375.815 113.387 372.908 113.387Z" fill="white"/>
<path d="M305.2 198.514C300.043 197.783 294.926 195.796 291.238 192.117C287.551 188.437 285.512 182.903 286.799 177.855C288.085 172.807 293.106 168.729 298.286 169.286C294.116 164.185 296.244 155.323 302.275 152.671C308.305 150.019 316.274 154.44 317.216 160.961C320.832 157.983 326.847 160.697 328.544 165.063C330.241 169.43 328.771 174.396 326.594 178.544C332.196 183.767 333.707 192.868 330.094 199.622C327.133 205.156 320.603 209.06 314.276 208.858C309.761 208.714 301.642 204.22 305.2 198.514Z" fill="white" fill-opacity="0.7"/>
<path d="M333.874 219.123C331.213 219.014 328.461 218.9 325.801 218.114C322.727 217.206 320.284 215.465 318.922 213.213C317.258 210.464 317.225 207.089 317.2 204.377L316.931 175.568L318.897 175.549L319.166 204.358C319.191 206.959 319.218 209.906 320.605 212.195C321.713 214.027 323.756 215.459 326.358 216.228C328.784 216.945 331.412 217.054 333.955 217.159L333.874 219.123Z" fill="white"/>
<path d="M352.288 266.174C346.804 261.369 345.148 252.598 348.806 246.29C352.463 239.983 361.207 237.097 367.762 240.289C374.317 243.481 377.393 252.475 373.883 258.865C376.71 257.3 380.409 257.794 383.033 259.679C385.657 261.564 387.259 264.649 387.814 267.832C388.724 273.05 386.874 278.669 383.043 282.327C379.212 285.985 373.514 287.573 368.343 286.424C376.168 288.163 367.182 298.078 362.795 298.514C358.149 298.974 352.126 297.17 348.9 293.738C345.544 290.167 344.429 284.462 343.727 279.791C343.141 275.89 344.273 259.732 352.288 266.174Z" fill="white" fill-opacity="0.7"/>
<path d="M344.421 304.29C342.645 304.29 340.92 303.966 339.242 303.649L339.607 301.717C341.479 302.07 343.409 302.439 345.297 302.291C346.447 302.205 348.581 301.823 349.952 300.229C351.29 298.671 351.551 296.344 351.705 294.093C352.143 287.689 352.229 281.194 351.961 274.788L353.927 274.707C354.198 281.183 354.109 287.752 353.668 294.228C353.491 296.809 353.176 299.497 351.442 301.512C350.082 303.09 347.953 304.064 345.445 304.254C345.103 304.279 344.761 304.29 344.421 304.29Z" fill="white"/>
</g>
</g>
<defs>
<radialGradient id="paint0_radial_135_10956" cx="0" cy="0" r="1" gradientUnits="userSpaceOnUse" gradientTransform="translate(123.5 104.5) rotate(58.8743) scale(424.632 237.139)">
<stop stop-color="#00E1FF"/>
<stop offset="1" stop-color="#00E1FF" stop-opacity="0"/>
</radialGradient>
<linearGradient id="paint1_linear_135_10956" x1="128.5" y1="-0.5" x2="196" y2="203" gradientUnits="userSpaceOnUse">
<stop/>
<stop offset="1" stop-opacity="0"/>
</linearGradient>
</defs>
</svg>
