<svg width="128" height="58" viewBox="0 0 128 58" fill="none" xmlns="http://www.w3.org/2000/svg">
<rect x="4" y="4" width="120" height="50" rx="20" fill="url(#paint0_linear_49_898)"/>
<rect opacity="0.2" x="2" y="2" width="124" height="54" rx="22" stroke="white" stroke-width="4"/>
<rect x="3" y="3" width="122" height="52" rx="21" fill="#5C5C5C"/>
<rect x="4" y="4" width="120" height="50" rx="20" fill="url(#paint1_linear_49_898)"/>
<g style="mix-blend-mode:overlay" opacity="0.6" filter="url(#filter0_f_49_898)">
<rect x="7" y="6" width="115" height="46" rx="18" fill="url(#paint2_linear_49_898)"/>
</g>
<g filter="url(#filter1_d_49_898)">
<path d="M39.4476 23.8C41.0796 23.8 42.3703 24.2107 43.3196 25.032C44.269 25.8427 44.7436 27.0053 44.7436 28.52H41.3676C41.3676 27.88 41.197 27.3733 40.8556 27C40.525 26.6267 40.0503 26.44 39.4316 26.44C38.717 26.44 38.189 26.664 37.8476 27.112C37.517 27.56 37.3516 28.184 37.3516 28.984V30.008C37.3516 30.7973 37.517 31.4213 37.8476 31.88C38.189 32.328 38.7063 32.552 39.3996 32.552C40.0823 32.552 40.5996 32.376 40.9516 32.024C41.3036 31.672 41.4796 31.176 41.4796 30.536H44.7436C44.7436 32.04 44.2796 33.192 43.3516 33.992C42.4343 34.792 41.133 35.192 39.4476 35.192C37.5703 35.192 36.1463 34.712 35.1756 33.752C34.2156 32.792 33.7356 31.3733 33.7356 29.496C33.7356 27.6187 34.2156 26.2 35.1756 25.24C36.1463 24.28 37.5703 23.8 39.4476 23.8ZM52.1248 23.8C54.0234 23.8 55.4901 24.2853 56.5248 25.256C57.5594 26.2267 58.0768 27.64 58.0768 29.496C58.0768 31.352 57.5594 32.7653 56.5248 33.736C55.4901 34.7067 54.0234 35.192 52.1248 35.192C50.2261 35.192 48.7594 34.712 47.7248 33.752C46.7008 32.7813 46.1888 31.3627 46.1888 29.496C46.1888 27.6293 46.7008 26.216 47.7248 25.256C48.7594 24.2853 50.2261 23.8 52.1248 23.8ZM52.1248 26.44C51.3674 26.44 50.7914 26.6693 50.3968 27.128C50.0021 27.5867 49.8048 28.2053 49.8048 28.984V30.008C49.8048 30.7867 50.0021 31.4053 50.3968 31.864C50.7914 32.3227 51.3674 32.552 52.1248 32.552C52.8821 32.552 53.4581 32.3227 53.8528 31.864C54.2581 31.4053 54.4608 30.7867 54.4608 30.008V28.984C54.4608 28.2053 54.2581 27.5867 53.8528 27.128C53.4581 26.6693 52.8821 26.44 52.1248 26.44ZM59.9809 23.992H63.5169V32.184H69.1649V35H59.9809V23.992ZM75.8591 23.8C77.7578 23.8 79.2245 24.2853 80.2591 25.256C81.2938 26.2267 81.8111 27.64 81.8111 29.496C81.8111 31.352 81.2938 32.7653 80.2591 33.736C79.2245 34.7067 77.7578 35.192 75.8591 35.192C73.9605 35.192 72.4938 34.712 71.4591 33.752C70.4351 32.7813 69.9231 31.3627 69.9231 29.496C69.9231 27.6293 70.4351 26.216 71.4591 25.256C72.4938 24.2853 73.9605 23.8 75.8591 23.8ZM75.8591 26.44C75.1018 26.44 74.5258 26.6693 74.1311 27.128C73.7365 27.5867 73.5391 28.2053 73.5391 28.984V30.008C73.5391 30.7867 73.7365 31.4053 74.1311 31.864C74.5258 32.3227 75.1018 32.552 75.8591 32.552C76.6165 32.552 77.1925 32.3227 77.5871 31.864C77.9925 31.4053 78.1951 30.7867 78.1951 30.008V28.984C78.1951 28.2053 77.9925 27.5867 77.5871 27.128C77.1925 26.6693 76.6165 26.44 75.8591 26.44ZM94.1633 27.368C94.1633 28.04 93.9819 28.648 93.6193 29.192C93.2566 29.736 92.7286 30.136 92.0353 30.392L94.4833 35H90.5153L88.5633 30.984H87.2513V35H83.7153V23.992H90.4513C91.2406 23.992 91.9126 24.1467 92.4673 24.456C93.0326 24.7547 93.4539 25.1653 93.7313 25.688C94.0193 26.2 94.1633 26.76 94.1633 27.368ZM90.5633 27.512C90.5633 27.224 90.4673 26.984 90.2753 26.792C90.0833 26.6 89.8486 26.504 89.5713 26.504H87.2513V28.536H89.5713C89.8486 28.536 90.0833 28.44 90.2753 28.248C90.4673 28.0453 90.5633 27.8 90.5633 27.512Z" fill="white"/>
</g>
<defs>
<filter id="filter0_f_49_898" x="4.33333" y="3.33333" width="120.333" height="51.3333" filterUnits="userSpaceOnUse" color-interpolation-filters="sRGB">
<feFlood flood-opacity="0" result="BackgroundImageFix"/>
<feBlend mode="normal" in="SourceGraphic" in2="BackgroundImageFix" result="shape"/>
<feGaussianBlur stdDeviation="1.33333" result="effect1_foregroundBlur_49_898"/>
</filter>
<filter id="filter1_d_49_898" x="32.7356" y="23.8" width="62.7477" height="13.392" filterUnits="userSpaceOnUse" color-interpolation-filters="sRGB">
<feFlood flood-opacity="0" result="BackgroundImageFix"/>
<feColorMatrix in="SourceAlpha" type="matrix" values="0 0 0 0 0 0 0 0 0 0 0 0 0 0 0 0 0 0 127 0" result="hardAlpha"/>
<feOffset dy="1"/>
<feGaussianBlur stdDeviation="0.5"/>
<feComposite in2="hardAlpha" operator="out"/>
<feColorMatrix type="matrix" values="0 0 0 0 0 0 0 0 0 0 0 0 0 0 0 0 0 0 0.3 0"/>
<feBlend mode="normal" in2="BackgroundImageFix" result="effect1_dropShadow_49_898"/>
<feBlend mode="normal" in="SourceGraphic" in2="effect1_dropShadow_49_898" result="shape"/>
</filter>
<linearGradient id="paint0_linear_49_898" x1="64" y1="4" x2="64" y2="54" gradientUnits="userSpaceOnUse">
<stop stop-color="#F88000"/>
<stop offset="1" stop-color="#F16C00"/>
</linearGradient>
<linearGradient id="paint1_linear_49_898" x1="64" y1="4" x2="64" y2="54" gradientUnits="userSpaceOnUse">
<stop stop-color="#FFA600"/>
<stop offset="1" stop-color="#F16C00"/>
</linearGradient>
<linearGradient id="paint2_linear_49_898" x1="65.9024" y1="6" x2="65.9024" y2="52" gradientUnits="userSpaceOnUse">
<stop stop-color="white"/>
<stop offset="1" stop-color="white" stop-opacity="0"/>
</linearGradient>
</defs>
</svg>
