<svg width="122" height="52" viewBox="0 0 122 52" fill="none" xmlns="http://www.w3.org/2000/svg">
<rect x="1" y="1" width="120" height="50" rx="20" fill="url(#paint0_linear_822_19084)"/>
<rect width="122" height="52" rx="21" fill="#5C5C5C"/>
<rect x="1" y="1" width="120" height="50" rx="20" fill="url(#paint1_linear_822_19084)"/>
<g style="mix-blend-mode:overlay" opacity="0.1" filter="url(#filter0_f_822_19084)">
<rect x="3" y="3" width="116" height="46" rx="20" fill="url(#paint2_linear_822_19084)"/>
</g>
<path opacity="0.3" d="M36.4476 20.8C38.0796 20.8 39.3703 21.2107 40.3196 22.032C41.269 22.8427 41.7436 24.0053 41.7436 25.52H38.3676C38.3676 24.88 38.197 24.3733 37.8556 24C37.525 23.6267 37.0503 23.44 36.4316 23.44C35.717 23.44 35.189 23.664 34.8476 24.112C34.517 24.56 34.3516 25.184 34.3516 25.984V27.008C34.3516 27.7973 34.517 28.4213 34.8476 28.88C35.189 29.328 35.7063 29.552 36.3996 29.552C37.0823 29.552 37.5996 29.376 37.9516 29.024C38.3036 28.672 38.4796 28.176 38.4796 27.536H41.7436C41.7436 29.04 41.2796 30.192 40.3516 30.992C39.4343 31.792 38.133 32.192 36.4476 32.192C34.5703 32.192 33.1463 31.712 32.1756 30.752C31.2156 29.792 30.7356 28.3733 30.7356 26.496C30.7356 24.6187 31.2156 23.2 32.1756 22.24C33.1463 21.28 34.5703 20.8 36.4476 20.8ZM49.1248 20.8C51.0234 20.8 52.4901 21.2853 53.5248 22.256C54.5594 23.2267 55.0768 24.64 55.0768 26.496C55.0768 28.352 54.5594 29.7653 53.5248 30.736C52.4901 31.7067 51.0234 32.192 49.1248 32.192C47.2261 32.192 45.7594 31.712 44.7248 30.752C43.7008 29.7813 43.1888 28.3627 43.1888 26.496C43.1888 24.6293 43.7008 23.216 44.7248 22.256C45.7594 21.2853 47.2261 20.8 49.1248 20.8ZM49.1248 23.44C48.3674 23.44 47.7914 23.6693 47.3968 24.128C47.0021 24.5867 46.8048 25.2053 46.8048 25.984V27.008C46.8048 27.7867 47.0021 28.4053 47.3968 28.864C47.7914 29.3227 48.3674 29.552 49.1248 29.552C49.8821 29.552 50.4581 29.3227 50.8528 28.864C51.2581 28.4053 51.4608 27.7867 51.4608 27.008V25.984C51.4608 25.2053 51.2581 24.5867 50.8528 24.128C50.4581 23.6693 49.8821 23.44 49.1248 23.44ZM56.9809 20.992H60.5169V29.184H66.1649V32H56.9809V20.992ZM72.8591 20.8C74.7578 20.8 76.2245 21.2853 77.2591 22.256C78.2938 23.2267 78.8111 24.64 78.8111 26.496C78.8111 28.352 78.2938 29.7653 77.2591 30.736C76.2245 31.7067 74.7578 32.192 72.8591 32.192C70.9605 32.192 69.4938 31.712 68.4591 30.752C67.4351 29.7813 66.9231 28.3627 66.9231 26.496C66.9231 24.6293 67.4351 23.216 68.4591 22.256C69.4938 21.2853 70.9605 20.8 72.8591 20.8ZM72.8591 23.44C72.1018 23.44 71.5258 23.6693 71.1311 24.128C70.7365 24.5867 70.5391 25.2053 70.5391 25.984V27.008C70.5391 27.7867 70.7365 28.4053 71.1311 28.864C71.5258 29.3227 72.1018 29.552 72.8591 29.552C73.6165 29.552 74.1925 29.3227 74.5871 28.864C74.9925 28.4053 75.1951 27.7867 75.1951 27.008V25.984C75.1951 25.2053 74.9925 24.5867 74.5871 24.128C74.1925 23.6693 73.6165 23.44 72.8591 23.44ZM91.1633 24.368C91.1633 25.04 90.9819 25.648 90.6193 26.192C90.2566 26.736 89.7286 27.136 89.0353 27.392L91.4833 32H87.5153L85.5633 27.984H84.2513V32H80.7153V20.992H87.4513C88.2406 20.992 88.9126 21.1467 89.4673 21.456C90.0326 21.7547 90.4539 22.1653 90.7313 22.688C91.0193 23.2 91.1633 23.76 91.1633 24.368ZM87.5633 24.512C87.5633 24.224 87.4673 23.984 87.2753 23.792C87.0833 23.6 86.8486 23.504 86.5713 23.504H84.2513V25.536H86.5713C86.8486 25.536 87.0833 25.44 87.2753 25.248C87.4673 25.0453 87.5633 24.8 87.5633 24.512Z" fill="white"/>
<defs>
<filter id="filter0_f_822_19084" x="0.333333" y="0.333333" width="121.333" height="51.3333" filterUnits="userSpaceOnUse" color-interpolation-filters="sRGB">
<feFlood flood-opacity="0" result="BackgroundImageFix"/>
<feBlend mode="normal" in="SourceGraphic" in2="BackgroundImageFix" result="shape"/>
<feGaussianBlur stdDeviation="1.33333" result="effect1_foregroundBlur_822_19084"/>
</filter>
<linearGradient id="paint0_linear_822_19084" x1="61" y1="1" x2="61" y2="51" gradientUnits="userSpaceOnUse">
<stop stop-color="#F88000"/>
<stop offset="1" stop-color="#F16C00"/>
</linearGradient>
<linearGradient id="paint1_linear_822_19084" x1="61" y1="1" x2="61" y2="51" gradientUnits="userSpaceOnUse">
<stop stop-color="#67829E"/>
<stop offset="1" stop-color="#41566B"/>
</linearGradient>
<linearGradient id="paint2_linear_822_19084" x1="62.4146" y1="3" x2="62.4146" y2="49" gradientUnits="userSpaceOnUse">
<stop stop-color="white"/>
<stop offset="1" stop-color="white" stop-opacity="0"/>
</linearGradient>
</defs>
</svg>
