<svg width="36" height="36" viewBox="0 0 36 36" fill="none" xmlns="http://www.w3.org/2000/svg">
<rect width="36" height="36" rx="10" fill="#305171"/>
<path d="M12.7754 21.5V15.0303C12.6257 15.18 12.3717 15.3477 12.0137 15.5332C11.6589 15.7188 11.3301 15.849 11.0273 15.9238V14.9863C11.4277 14.8757 11.8558 14.6999 12.3115 14.459C12.7673 14.2148 13.1172 13.9854 13.3613 13.7705H13.7227V21.5H12.7754ZM20.2217 13.9365L16.5938 22.7549H15.7002L19.3281 13.9365H20.2217ZM24.3037 15.9189C24.3037 15.512 24.1751 15.193 23.918 14.9619C23.6608 14.7275 23.3109 14.6104 22.8682 14.6104C22.5557 14.6104 22.2399 14.6901 21.9209 14.8496C21.6019 15.0091 21.304 15.237 21.0273 15.5332V14.6055C21.2747 14.3483 21.5547 14.1514 21.8672 14.0146C22.1829 13.8779 22.5524 13.8096 22.9756 13.8096C23.6592 13.8096 24.2093 13.9935 24.626 14.3613C25.0426 14.7259 25.251 15.2207 25.251 15.8457C25.251 16.4023 25.1224 16.8841 24.8652 17.291C24.6113 17.6979 24.1751 18.1146 23.5566 18.541C22.9251 18.9772 22.502 19.2897 22.2871 19.4785C22.0755 19.6673 21.9274 19.848 21.8428 20.0205C21.7581 20.193 21.7158 20.403 21.7158 20.6504H25.4756V21.5H20.7197V21.124C20.7197 20.6878 20.7783 20.3184 20.8955 20.0156C21.016 19.7096 21.2129 19.4134 21.4863 19.127C21.7598 18.8372 22.1862 18.4906 22.7656 18.0869C23.3581 17.6702 23.7617 17.3057 23.9766 16.9932C24.1947 16.6774 24.3037 16.3193 24.3037 15.9189Z" fill="#ADD7FF"/>
</svg>
