<svg width="36" height="36" viewBox="0 0 36 36" fill="none" xmlns="http://www.w3.org/2000/svg">
<g filter="url(#filter0_ii_49_604)">
<rect width="36" height="36" rx="10" fill="#305171"/>
<path d="M14.1816 21.5V16.4902C14.1816 16.0768 14.2061 15.5804 14.2549 15.001H14.2305C14.1458 15.3656 14.071 15.6195 14.0059 15.7627L11.5107 21.5H10.9688L8.47852 15.8066C8.41992 15.6764 8.34505 15.4079 8.25391 15.001H8.22461C8.25716 15.3525 8.27344 15.8636 8.27344 16.5342V21.5H7.34082V13.9365H8.66406L10.8955 19.1221C11.0648 19.5192 11.1771 19.8285 11.2324 20.0498H11.2666C11.4359 19.5843 11.5547 19.2686 11.623 19.1025L13.8936 13.9365H15.1533V21.5H14.1816ZM23.0586 21.5H21.9795L21.208 19.4297H18.0586L17.3311 21.5H16.252L19.1328 13.9365H20.1777L23.0586 21.5ZM20.9053 18.5752L19.7627 15.4307C19.7269 15.3298 19.6878 15.154 19.6455 14.9033H19.6211C19.5853 15.1312 19.5446 15.307 19.499 15.4307L18.3662 18.5752H20.9053ZM29.4844 21.5H28.2979L26.6084 18.6533C26.5693 18.5882 26.5124 18.458 26.4375 18.2627H26.4131C26.4066 18.2887 26.348 18.4206 26.2373 18.6582L24.499 21.5H23.3076L25.8223 17.7012L23.5078 13.9365H24.7041L26.1982 16.5537C26.2861 16.7067 26.374 16.8857 26.4619 17.0908H26.4814C26.5596 16.915 26.6556 16.7279 26.7695 16.5293L28.332 13.9365H29.4502L27.0869 17.6865L29.4844 21.5Z" fill="#ADD7FF"/>
</g>
<defs>
<filter id="filter0_ii_49_604" x="0" y="0" width="36" height="38" filterUnits="userSpaceOnUse" color-interpolation-filters="sRGB">
<feFlood flood-opacity="0" result="BackgroundImageFix"/>
<feBlend mode="normal" in="SourceGraphic" in2="BackgroundImageFix" result="shape"/>
<feColorMatrix in="SourceAlpha" type="matrix" values="0 0 0 0 0 0 0 0 0 0 0 0 0 0 0 0 0 0 127 0" result="hardAlpha"/>
<feOffset dy="2"/>
<feGaussianBlur stdDeviation="2"/>
<feComposite in2="hardAlpha" operator="arithmetic" k2="-1" k3="1"/>
<feColorMatrix type="matrix" values="0 0 0 0 1 0 0 0 0 1 0 0 0 0 1 0 0 0 0.2 0"/>
<feBlend mode="plus-lighter" in2="shape" result="effect1_innerShadow_49_604"/>
<feColorMatrix in="SourceAlpha" type="matrix" values="0 0 0 0 0 0 0 0 0 0 0 0 0 0 0 0 0 0 127 0" result="hardAlpha"/>
<feOffset/>
<feGaussianBlur stdDeviation="3"/>
<feComposite in2="hardAlpha" operator="arithmetic" k2="-1" k3="1"/>
<feColorMatrix type="matrix" values="0 0 0 0 0 0 0 0 0 0 0 0 0 0 0 0 0 0 0.4 0"/>
<feBlend mode="soft-light" in2="effect1_innerShadow_49_604" result="effect2_innerShadow_49_604"/>
</filter>
</defs>
</svg>
