<svg width="36" height="36" viewBox="0 0 36 36" fill="none" xmlns="http://www.w3.org/2000/svg">
<rect width="36" height="36" rx="10" fill="#243E58"/>
<path d="M15.3926 21.5V16.4902C15.3926 16.0768 15.417 15.5804 15.4658 15.001H15.4414C15.3568 15.3656 15.2819 15.6195 15.2168 15.7627L12.7217 21.5H12.1797L9.68945 15.8066C9.63086 15.6764 9.55599 15.4079 9.46484 15.001H9.43555C9.4681 15.3525 9.48438 15.8636 9.48438 16.5342V21.5H8.55176V13.9365H9.875L12.1064 19.1221C12.2757 19.5192 12.388 19.8285 12.4434 20.0498H12.4775C12.6468 19.5843 12.7656 19.2686 12.834 19.1025L15.1045 13.9365H16.3643V21.5H15.3926ZM19.3037 13.9365V21.5H18.3271V13.9365H19.3037ZM27.4434 21.5H26.2861L22.4824 15.6162C22.375 15.4502 22.2887 15.2858 22.2236 15.123H22.1943C22.2204 15.2923 22.2334 15.6455 22.2334 16.1826V21.5H21.2666V13.9365H22.4922L26.1934 19.7178C26.3691 19.9912 26.4733 20.1654 26.5059 20.2402H26.5254C26.4928 20.0254 26.4766 19.6576 26.4766 19.1367V13.9365H27.4434V21.5Z" fill="#ADD7FF" fill-opacity="0.4"/>
</svg>
