<svg width="122" height="52" viewBox="0 0 122 52" fill="none" xmlns="http://www.w3.org/2000/svg">
<rect x="1" y="1" width="120" height="50" rx="20" fill="url(#paint0_linear_822_20521)"/>
<rect width="122" height="52" rx="21" fill="#5C5C5C"/>
<rect x="1" y="1" width="120" height="50" rx="20" fill="url(#paint1_linear_822_20521)"/>
<g style="mix-blend-mode:overlay" opacity="0.1" filter="url(#filter0_f_822_20521)">
<rect x="3" y="3" width="116" height="46" rx="20" fill="url(#paint2_linear_822_20521)"/>
</g>
<path opacity="0.3" d="M54.9054 24.368C54.9054 25.04 54.7241 25.648 54.3614 26.192C53.9988 26.736 53.4708 27.136 52.7774 27.392L55.2254 32H51.2574L49.3054 27.984H47.9934V32H44.4574V20.992H51.1934C51.9828 20.992 52.6548 21.1467 53.2094 21.456C53.7748 21.7547 54.1961 22.1653 54.4734 22.688C54.7614 23.2 54.9054 23.76 54.9054 24.368ZM51.3054 24.512C51.3054 24.224 51.2094 23.984 51.0174 23.792C50.8254 23.6 50.5908 23.504 50.3134 23.504H47.9934V25.536H50.3134C50.5908 25.536 50.8254 25.44 51.0174 25.248C51.2094 25.0453 51.3054 24.8 51.3054 24.512ZM56.9106 20.992H66.4306V23.632H60.4466V25.152H65.5666V27.68H60.4466V29.36H66.5426V32H56.9106V20.992ZM73.2254 20.992C77.0761 20.992 79.0014 22.8267 79.0014 26.496C79.0014 30.1653 77.0761 32 73.2254 32H68.4574V20.992H73.2254ZM71.9934 29.36H73.1614C74.6441 29.36 75.3854 28.5653 75.3854 26.976V26.016C75.3854 24.4267 74.6441 23.632 73.1614 23.632H71.9934V29.36Z" fill="white"/>
<defs>
<filter id="filter0_f_822_20521" x="0.333333" y="0.333333" width="121.333" height="51.3333" filterUnits="userSpaceOnUse" color-interpolation-filters="sRGB">
<feFlood flood-opacity="0" result="BackgroundImageFix"/>
<feBlend mode="normal" in="SourceGraphic" in2="BackgroundImageFix" result="shape"/>
<feGaussianBlur stdDeviation="1.33333" result="effect1_foregroundBlur_822_20521"/>
</filter>
<linearGradient id="paint0_linear_822_20521" x1="61" y1="1" x2="61" y2="51" gradientUnits="userSpaceOnUse">
<stop stop-color="#F88000"/>
<stop offset="1" stop-color="#F16C00"/>
</linearGradient>
<linearGradient id="paint1_linear_822_20521" x1="61" y1="1" x2="61" y2="51" gradientUnits="userSpaceOnUse">
<stop stop-color="#67829E"/>
<stop offset="1" stop-color="#41566B"/>
</linearGradient>
<linearGradient id="paint2_linear_822_20521" x1="62.4146" y1="3" x2="62.4146" y2="49" gradientUnits="userSpaceOnUse">
<stop stop-color="white"/>
<stop offset="1" stop-color="white" stop-opacity="0"/>
</linearGradient>
</defs>
</svg>
